{
  "asset": { "version": "2.0", "generator": "THREE.GLTFExporter r174" },
  "scenes": [{ "name": "AuxScene", "nodes": [2] }],
  "scene": 0,
  "nodes": [
    { "mesh": 0 },
    {
      "matrix": [1, 0, 0, 0, 0, 1, 0, 0, 0, 0, 1, 0, 0, 0, -0.25, 1],
      "mesh": 1
    },
    {
      "matrix": [
        0.19853590524315298, 0, 0, 0, 0, -0.19853590524315298,
        2.431363608718495e-17, 0, 0, -6.123233995736766e-17, -0.5, 0,
        -2.214663047169129, 2.5, 0, 1
      ],
      "children": [0, 1]
    }
  ],
  "bufferViews": [
    {
      "buffer": 0,
      "byteOffset": 0,
      "byteLength": 25632,
      "target": 34962,
      "byteStride": 12
    },
    {
      "buffer": 0,
      "byteOffset": 25632,
      "byteLength": 17088,
      "target": 34962,
      "byteStride": 8
    },
    {
      "buffer": 0,
      "byteOffset": 42720,
      "byteLength": 25632,
      "target": 34962,
      "byteStride": 12
    },
    {
      "buffer": 0,
      "byteOffset": 68352,
      "byteLength": 25776,
      "target": 34962,
      "byteStride": 12
    },
    {
      "buffer": 0,
      "byteOffset": 94128,
      "byteLength": 17184,
      "target": 34962,
      "byteStride": 8
    },
    {
      "buffer": 0,
      "byteOffset": 111312,
      "byteLength": 25776,
      "target": 34962,
      "byteStride": 12
    }
  ],
  "buffers": [
    {
      "byteLength": 137088,
      "uri": "data:application/octet-stream;base64,"
    }
  ],
  "accessors": [
    {
      "bufferView": 0,
      "componentType": 5126,
      "count": 2136,
      "max": [31, 30.14780044555664, 2],
      "min": [13.556197166442871, 7.907839775085449, 0],
      "type": "VEC3"
    },
    {
      "bufferView": 1,
      "componentType": 5126,
      "count": 2136,
      "max": [31, 30.14780044555664],
      "min": [13.556197166442871, -1],
      "type": "VEC2"
    },
    {
      "bufferView": 2,
      "componentType": 5126,
      "count": 2136,
      "max": [1, 0.866447389125824, 1],
      "min": [-1, -0.9999570846557617, -1],
      "type": "VEC3"
    },
    {
      "bufferView": 3,
      "componentType": 5126,
      "count": 2148,
      "max": [26.111907958984375, 33.092201232910156, 2],
      "min": [8.69005012512207, 10.865500450134277, 0],
      "type": "VEC3"
    },
    {
      "bufferView": 4,
      "componentType": 5126,
      "count": 2148,
      "max": [27.154836654663086, 33.092201232910156],
      "min": [8.69005012512207, -1],
      "type": "VEC2"
    },
    {
      "bufferView": 5,
      "componentType": 5126,
      "count": 2148,
      "max": [1, 1, 1],
      "min": [-1, -0.86652672290802, -1],
      "type": "VEC3"
    }
  ],
  "materials": [
    { "pbrMetallicRoughness": { "metallicFactor": 0, "roughnessFactor": 1 } },
    { "pbrMetallicRoughness": { "metallicFactor": 0, "roughnessFactor": 1 } }
  ],
  "meshes": [
    {
      "primitives": [
        {
          "mode": 4,
          "attributes": { "POSITION": 0, "TEXCOORD_0": 1, "NORMAL": 2 },
          "material": 0
        }
      ]
    },
    {
      "primitives": [
        {
          "mode": 4,
          "attributes": { "POSITION": 3, "TEXCOORD_0": 4, "NORMAL": 5 },
          "material": 1
        }
      ]
    }
  ]
}
