{
  "asset": { "version": "2.0", "generator": "THREE.GLTFExporter r174" },
  "scenes": [{ "name": "AuxScene", "nodes": [6] }],
  "scene": 0,
  "nodes": [
    { "mesh": 0 },
    {
      "matrix": [1, 0, 0, 0, 0, 1, 0, 0, 0, 0, 1, 0, 0, 0, -0.25, 1],
      "mesh": 1
    },
    {
      "matrix": [1, 0, 0, 0, 0, 1, 0, 0, 0, 0, 1, 0, 0, 0, -0.5, 1],
      "mesh": 2
    },
    {
      "matrix": [1, 0, 0, 0, 0, 1, 0, 0, 0, 0, 1, 0, 0, 0, -0.75, 1],
      "mesh": 3
    },
    { "matrix": [1, 0, 0, 0, 0, 1, 0, 0, 0, 0, 1, 0, 0, 0, -1, 1], "mesh": 4 },
    {
      "matrix": [1, 0, 0, 0, 0, 1, 0, 0, 0, 0, 1, 0, 0, 0, -1.25, 1],
      "mesh": 5
    },
    {
      "matrix": [
        0.03597122302158273, 0, 0, 0, 0, -0.03597122302158273,
        4.405204313479687e-18, 0, 0, -6.123233995736766e-17, -0.5, 0, -2.5, 2.5,
        0, 1
      ],
      "children": [0, 1, 2, 3, 4, 5]
    }
  ],
  "bufferViews": [
    {
      "buffer": 0,
      "byteOffset": 0,
      "byteLength": 432,
      "target": 34962,
      "byteStride": 12
    },
    {
      "buffer": 0,
      "byteOffset": 432,
      "byteLength": 288,
      "target": 34962,
      "byteStride": 8
    },
    {
      "buffer": 0,
      "byteOffset": 720,
      "byteLength": 432,
      "target": 34962,
      "byteStride": 12
    },
    {
      "buffer": 0,
      "byteOffset": 1152,
      "byteLength": 432,
      "target": 34962,
      "byteStride": 12
    },
    {
      "buffer": 0,
      "byteOffset": 1584,
      "byteLength": 288,
      "target": 34962,
      "byteStride": 8
    },
    {
      "buffer": 0,
      "byteOffset": 1872,
      "byteLength": 432,
      "target": 34962,
      "byteStride": 12
    },
    {
      "buffer": 0,
      "byteOffset": 2304,
      "byteLength": 432,
      "target": 34962,
      "byteStride": 12
    },
    {
      "buffer": 0,
      "byteOffset": 2736,
      "byteLength": 288,
      "target": 34962,
      "byteStride": 8
    },
    {
      "buffer": 0,
      "byteOffset": 3024,
      "byteLength": 432,
      "target": 34962,
      "byteStride": 12
    },
    {
      "buffer": 0,
      "byteOffset": 3456,
      "byteLength": 432,
      "target": 34962,
      "byteStride": 12
    },
    {
      "buffer": 0,
      "byteOffset": 3888,
      "byteLength": 288,
      "target": 34962,
      "byteStride": 8
    },
    {
      "buffer": 0,
      "byteOffset": 4176,
      "byteLength": 432,
      "target": 34962,
      "byteStride": 12
    },
    {
      "buffer": 0,
      "byteOffset": 4608,
      "byteLength": 432,
      "target": 34962,
      "byteStride": 12
    },
    {
      "buffer": 0,
      "byteOffset": 5040,
      "byteLength": 288,
      "target": 34962,
      "byteStride": 8
    },
    {
      "buffer": 0,
      "byteOffset": 5328,
      "byteLength": 432,
      "target": 34962,
      "byteStride": 12
    },
    {
      "buffer": 0,
      "byteOffset": 5760,
      "byteLength": 432,
      "target": 34962,
      "byteStride": 12
    },
    {
      "buffer": 0,
      "byteOffset": 6192,
      "byteLength": 288,
      "target": 34962,
      "byteStride": 8
    },
    {
      "buffer": 0,
      "byteOffset": 6480,
      "byteLength": 432,
      "target": 34962,
      "byteStride": 12
    }
  ],
  "buffers": [
    {
      "byteLength": 6912,
      "uri": "data:application/octet-stream;base64,"
    }
  ],
  "accessors": [
    {
      "bufferView": 0,
      "componentType": 5126,
      "count": 36,
      "max": [159, 187, 2],
      "min": [131, 158, 0],
      "type": "VEC3"
    },
    {
      "bufferView": 1,
      "componentType": 5126,
      "count": 36,
      "max": [187, 187],
      "min": [131, -1],
      "type": "VEC2"
    },
    {
      "bufferView": 2,
      "componentType": 5126,
      "count": 36,
      "max": [1, 1, 1],
      "min": [-1, -1, -1],
      "type": "VEC3"
    },
    {
      "bufferView": 3,
      "componentType": 5126,
      "count": 36,
      "max": [214, 270, 2],
      "min": [187, 241, 0],
      "type": "VEC3"
    },
    {
      "bufferView": 4,
      "componentType": 5126,
      "count": 36,
      "max": [270, 270],
      "min": [187, -1],
      "type": "VEC2"
    },
    {
      "bufferView": 5,
      "componentType": 5126,
      "count": 36,
      "max": [1, 1, 1],
      "min": [-1, -1, -1],
      "type": "VEC3"
    },
    {
      "bufferView": 6,
      "componentType": 5126,
      "count": 36,
      "max": [270, 187, 2],
      "min": [241, 158, 0],
      "type": "VEC3"
    },
    {
      "bufferView": 7,
      "componentType": 5126,
      "count": 36,
      "max": [270, 187],
      "min": [158, -1],
      "type": "VEC2"
    },
    {
      "bufferView": 8,
      "componentType": 5126,
      "count": 36,
      "max": [1, 1, 1],
      "min": [-1, -1, -1],
      "type": "VEC3"
    },
    {
      "bufferView": 9,
      "componentType": 5126,
      "count": 36,
      "max": [159, 270, 2],
      "min": [131, 214, 0],
      "type": "VEC3"
    },
    {
      "bufferView": 10,
      "componentType": 5126,
      "count": 36,
      "max": [270, 270],
      "min": [131, -1],
      "type": "VEC2"
    },
    {
      "bufferView": 11,
      "componentType": 5126,
      "count": 36,
      "max": [1, 1, 1],
      "min": [-1, -1, -1],
      "type": "VEC3"
    },
    {
      "bufferView": 12,
      "componentType": 5126,
      "count": 36,
      "max": [270, 270, 2],
      "min": [241, 214, 0],
      "type": "VEC3"
    },
    {
      "bufferView": 13,
      "componentType": 5126,
      "count": 36,
      "max": [270, 270],
      "min": [214, -1],
      "type": "VEC2"
    },
    {
      "bufferView": 14,
      "componentType": 5126,
      "count": 36,
      "max": [1, 1, 1],
      "min": [-1, -1, -1],
      "type": "VEC3"
    },
    {
      "bufferView": 15,
      "componentType": 5126,
      "count": 36,
      "max": [214, 214, 2],
      "min": [187, 131, 0],
      "type": "VEC3"
    },
    {
      "bufferView": 16,
      "componentType": 5126,
      "count": 36,
      "max": [214, 214],
      "min": [131, -1],
      "type": "VEC2"
    },
    {
      "bufferView": 17,
      "componentType": 5126,
      "count": 36,
      "max": [1, 1, 1],
      "min": [-1, -1, -1],
      "type": "VEC3"
    }
  ],
  "materials": [
    {
      "pbrMetallicRoughness": {
        "baseColorFactor": [
          0.11193242782769693, 0.7156935005005721, 0.48514994004665124, 1
        ],
        "metallicFactor": 0,
        "roughnessFactor": 1
      }
    },
    {
      "pbrMetallicRoughness": {
        "baseColorFactor": [
          0.11193242782769693, 0.7156935005005721, 0.48514994004665124, 1
        ],
        "metallicFactor": 0,
        "roughnessFactor": 1
      }
    },
    {
      "pbrMetallicRoughness": {
        "baseColorFactor": [
          0.11193242782769693, 0.7156935005005721, 0.48514994004665124, 1
        ],
        "metallicFactor": 0,
        "roughnessFactor": 1
      }
    },
    {
      "pbrMetallicRoughness": {
        "baseColorFactor": [
          0.11193242782769693, 0.7156935005005721, 0.48514994004665124, 1
        ],
        "metallicFactor": 0,
        "roughnessFactor": 1
      }
    },
    {
      "pbrMetallicRoughness": {
        "baseColorFactor": [
          0.11193242782769693, 0.7156935005005721, 0.48514994004665124, 1
        ],
        "metallicFactor": 0,
        "roughnessFactor": 1
      }
    },
    {
      "pbrMetallicRoughness": {
        "baseColorFactor": [
          0.11193242782769693, 0.7156935005005721, 0.48514994004665124, 1
        ],
        "metallicFactor": 0,
        "roughnessFactor": 1
      }
    }
  ],
  "meshes": [
    {
      "primitives": [
        {
          "mode": 4,
          "attributes": { "POSITION": 0, "TEXCOORD_0": 1, "NORMAL": 2 },
          "material": 0
        }
      ]
    },
    {
      "primitives": [
        {
          "mode": 4,
          "attributes": { "POSITION": 3, "TEXCOORD_0": 4, "NORMAL": 5 },
          "material": 1
        }
      ]
    },
    {
      "primitives": [
        {
          "mode": 4,
          "attributes": { "POSITION": 6, "TEXCOORD_0": 7, "NORMAL": 8 },
          "material": 2
        }
      ]
    },
    {
      "primitives": [
        {
          "mode": 4,
          "attributes": { "POSITION": 9, "TEXCOORD_0": 10, "NORMAL": 11 },
          "material": 3
        }
      ]
    },
    {
      "primitives": [
        {
          "mode": 4,
          "attributes": { "POSITION": 12, "TEXCOORD_0": 13, "NORMAL": 14 },
          "material": 4
        }
      ]
    },
    {
      "primitives": [
        {
          "mode": 4,
          "attributes": { "POSITION": 15, "TEXCOORD_0": 16, "NORMAL": 17 },
          "material": 5
        }
      ]
    }
  ]
}
