{
  "asset": { "version": "2.0", "generator": "THREE.GLTFExporter r174" },
  "scenes": [{ "name": "AuxScene", "nodes": [12] }],
  "scene": 0,
  "nodes": [
    { "mesh": 0 },
    {
      "matrix": [1, 0, 0, 0, 0, 1, 0, 0, 0, 0, 1, 0, 0, 0, -0.00390625, 1],
      "mesh": 1
    },
    {
      "matrix": [1, 0, 0, 0, 0, 1, 0, 0, 0, 0, 1, 0, 0, 0, -0.0078125, 1],
      "mesh": 2
    },
    {
      "matrix": [1, 0, 0, 0, 0, 1, 0, 0, 0, 0, 1, 0, 0, 0, -0.01171875, 1],
      "mesh": 3
    },
    {
      "matrix": [1, 0, 0, 0, 0, 1, 0, 0, 0, 0, 1, 0, 0, 0, -0.015625, 1],
      "mesh": 4
    },
    {
      "matrix": [1, 0, 0, 0, 0, 1, 0, 0, 0, 0, 1, 0, 0, 0, -0.01953125, 1],
      "mesh": 5
    },
    {
      "matrix": [1, 0, 0, 0, 0, 1, 0, 0, 0, 0, 1, 0, 0, 0, -0.0234375, 1],
      "mesh": 6
    },
    {
      "matrix": [1, 0, 0, 0, 0, 1, 0, 0, 0, 0, 1, 0, 0, 0, -0.02734375, 1],
      "mesh": 7
    },
    {
      "matrix": [1, 0, 0, 0, 0, 1, 0, 0, 0, 0, 1, 0, 0, 0, -0.03125, 1],
      "mesh": 8
    },
    {
      "matrix": [1, 0, 0, 0, 0, 1, 0, 0, 0, 0, 1, 0, 0, 0, -0.03515625, 1],
      "mesh": 9
    },
    {
      "matrix": [1, 0, 0, 0, 0, 1, 0, 0, 0, 0, 1, 0, 0, 0, -0.0390625, 1],
      "mesh": 10
    },
    {
      "matrix": [1, 0, 0, 0, 0, 1, 0, 0, 0, 0, 1, 0, 0, 0, -0.04296875, 1],
      "mesh": 11
    },
    {
      "matrix": [
        0.004948280741239408, 0, 0, 0, 0, -0.004948280741239408,
        6.059896171041333e-19, 0, 0, -6.123233995736766e-17, -0.5, 0,
        -2.4701198925174594, 2.5000000000000284, 0, 1
      ],
      "children": [0, 1, 2, 3, 4, 5, 6, 7, 8, 9, 10, 11]
    }
  ],
  "bufferViews": [
    {
      "buffer": 0,
      "byteOffset": 0,
      "byteLength": 91440,
      "target": 34962,
      "byteStride": 12
    },
    {
      "buffer": 0,
      "byteOffset": 91440,
      "byteLength": 60960,
      "target": 34962,
      "byteStride": 8
    },
    {
      "buffer": 0,
      "byteOffset": 152400,
      "byteLength": 91440,
      "target": 34962,
      "byteStride": 12
    },
    {
      "buffer": 0,
      "byteOffset": 243840,
      "byteLength": 262512,
      "target": 34962,
      "byteStride": 12
    },
    {
      "buffer": 0,
      "byteOffset": 506352,
      "byteLength": 175008,
      "target": 34962,
      "byteStride": 8
    },
    {
      "buffer": 0,
      "byteOffset": 681360,
      "byteLength": 262512,
      "target": 34962,
      "byteStride": 12
    },
    {
      "buffer": 0,
      "byteOffset": 943872,
      "byteLength": 105264,
      "target": 34962,
      "byteStride": 12
    },
    {
      "buffer": 0,
      "byteOffset": 1049136,
      "byteLength": 70176,
      "target": 34962,
      "byteStride": 8
    },
    {
      "buffer": 0,
      "byteOffset": 1119312,
      "byteLength": 105264,
      "target": 34962,
      "byteStride": 12
    },
    {
      "buffer": 0,
      "byteOffset": 1224576,
      "byteLength": 108720,
      "target": 34962,
      "byteStride": 12
    },
    {
      "buffer": 0,
      "byteOffset": 1333296,
      "byteLength": 72480,
      "target": 34962,
      "byteStride": 8
    },
    {
      "buffer": 0,
      "byteOffset": 1405776,
      "byteLength": 108720,
      "target": 34962,
      "byteStride": 12
    },
    {
      "buffer": 0,
      "byteOffset": 1514496,
      "byteLength": 117360,
      "target": 34962,
      "byteStride": 12
    },
    {
      "buffer": 0,
      "byteOffset": 1631856,
      "byteLength": 78240,
      "target": 34962,
      "byteStride": 8
    },
    {
      "buffer": 0,
      "byteOffset": 1710096,
      "byteLength": 117360,
      "target": 34962,
      "byteStride": 12
    },
    {
      "buffer": 0,
      "byteOffset": 1827456,
      "byteLength": 145008,
      "target": 34962,
      "byteStride": 12
    },
    {
      "buffer": 0,
      "byteOffset": 1972464,
      "byteLength": 96672,
      "target": 34962,
      "byteStride": 8
    },
    {
      "buffer": 0,
      "byteOffset": 2069136,
      "byteLength": 145008,
      "target": 34962,
      "byteStride": 12
    },
    {
      "buffer": 0,
      "byteOffset": 2214144,
      "byteLength": 63792,
      "target": 34962,
      "byteStride": 12
    },
    {
      "buffer": 0,
      "byteOffset": 2277936,
      "byteLength": 42528,
      "target": 34962,
      "byteStride": 8
    },
    {
      "buffer": 0,
      "byteOffset": 2320464,
      "byteLength": 63792,
      "target": 34962,
      "byteStride": 12
    },
    {
      "buffer": 0,
      "byteOffset": 2384256,
      "byteLength": 70704,
      "target": 34962,
      "byteStride": 12
    },
    {
      "buffer": 0,
      "byteOffset": 2454960,
      "byteLength": 47136,
      "target": 34962,
      "byteStride": 8
    },
    {
      "buffer": 0,
      "byteOffset": 2502096,
      "byteLength": 70704,
      "target": 34962,
      "byteStride": 12
    },
    {
      "buffer": 0,
      "byteOffset": 2572800,
      "byteLength": 44784,
      "target": 34962,
      "byteStride": 12
    },
    {
      "buffer": 0,
      "byteOffset": 2617584,
      "byteLength": 29856,
      "target": 34962,
      "byteStride": 8
    },
    {
      "buffer": 0,
      "byteOffset": 2647440,
      "byteLength": 44784,
      "target": 34962,
      "byteStride": 12
    },
    {
      "buffer": 0,
      "byteOffset": 2692224,
      "byteLength": 27504,
      "target": 34962,
      "byteStride": 12
    },
    {
      "buffer": 0,
      "byteOffset": 2719728,
      "byteLength": 18336,
      "target": 34962,
      "byteStride": 8
    },
    {
      "buffer": 0,
      "byteOffset": 2738064,
      "byteLength": 27504,
      "target": 34962,
      "byteStride": 12
    },
    {
      "buffer": 0,
      "byteOffset": 2765568,
      "byteLength": 29232,
      "target": 34962,
      "byteStride": 12
    },
    {
      "buffer": 0,
      "byteOffset": 2794800,
      "byteLength": 19488,
      "target": 34962,
      "byteStride": 8
    },
    {
      "buffer": 0,
      "byteOffset": 2814288,
      "byteLength": 29232,
      "target": 34962,
      "byteStride": 12
    },
    {
      "buffer": 0,
      "byteOffset": 2843520,
      "byteLength": 22320,
      "target": 34962,
      "byteStride": 12
    },
    {
      "buffer": 0,
      "byteOffset": 2865840,
      "byteLength": 14880,
      "target": 34962,
      "byteStride": 8
    },
    {
      "buffer": 0,
      "byteOffset": 2880720,
      "byteLength": 22320,
      "target": 34962,
      "byteStride": 12
    }
  ],
  "buffers": [
    {
      "byteLength": 2903040,
      "uri": "data:application/octet-stream;base64,"
    }
  ],
  "accessors": [
    {
      "bufferView": 0,
      "componentType": 5126,
      "count": 7620,
      "max": [1011.1875, 1017.3899536132812, 2],
      "min": [12.8125, 6.93798828125, 0],
      "type": "VEC3"
    },
    {
      "bufferView": 1,
      "componentType": 5126,
      "count": 7620,
      "max": [1011.1875, 1017.3899536132812],
      "min": [12.8125, -1],
      "type": "VEC2"
    },
    {
      "bufferView": 2,
      "componentType": 5126,
      "count": 7620,
      "max": [0.9999999403953552, 0.999951958656311, 1],
      "min": [-1, -0.9999744296073914, -1],
      "type": "VEC3"
    },
    {
      "bufferView": 3,
      "componentType": 5126,
      "count": 21876,
      "max": [859.224609375, 870.3125, 2],
      "min": [164.86105346679688, 486, 0],
      "type": "VEC3"
    },
    {
      "bufferView": 4,
      "componentType": 5126,
      "count": 21876,
      "max": [859.224609375, 870.3125],
      "min": [164.86105346679688, -1],
      "type": "VEC2"
    },
    {
      "bufferView": 5,
      "componentType": 5126,
      "count": 21876,
      "max": [1, 1, 1],
      "min": [-1, -0.9999997019767761, -1],
      "type": "VEC3"
    },
    {
      "bufferView": 6,
      "componentType": 5126,
      "count": 8772,
      "max": [785, 385, 2],
      "min": [238, 167.5625, 0],
      "type": "VEC3"
    },
    {
      "bufferView": 7,
      "componentType": 5126,
      "count": 8772,
      "max": [785, 385],
      "min": [185, -1],
      "type": "VEC2"
    },
    {
      "bufferView": 8,
      "componentType": 5126,
      "count": 8772,
      "max": [1, 0.9999995231628418, 1],
      "min": [-1, -1, -1],
      "type": "VEC3"
    },
    {
      "bufferView": 9,
      "componentType": 5126,
      "count": 9060,
      "max": [491, 580.891845703125, 2],
      "min": [166, 400, 0],
      "type": "VEC3"
    },
    {
      "bufferView": 10,
      "componentType": 5126,
      "count": 9060,
      "max": [571, 580.891845703125],
      "min": [166, -1],
      "type": "VEC2"
    },
    {
      "bufferView": 11,
      "componentType": 5126,
      "count": 9060,
      "max": [1, 0.9997011423110962, 1],
      "min": [-1, -0.9999799132347107, -1],
      "type": "VEC3"
    },
    {
      "bufferView": 12,
      "componentType": 5126,
      "count": 9780,
      "max": [859, 580.264892578125, 2],
      "min": [537, 401, 0],
      "type": "VEC3"
    },
    {
      "bufferView": 13,
      "componentType": 5126,
      "count": 9780,
      "max": [859, 580.264892578125],
      "min": [401, -1],
      "type": "VEC2"
    },
    {
      "bufferView": 14,
      "componentType": 5126,
      "count": 9780,
      "max": [1, 0.9999998807907104, 1],
      "min": [-1, -0.9999999403953552, -1],
      "type": "VEC3"
    },
    {
      "bufferView": 15,
      "componentType": 5126,
      "count": 12084,
      "max": [658, 587, 2],
      "min": [369, 351.62689208984375, 0],
      "type": "VEC3"
    },
    {
      "bufferView": 16,
      "componentType": 5126,
      "count": 12084,
      "max": [658, 587],
      "min": [353, -1],
      "type": "VEC2"
    },
    {
      "bufferView": 17,
      "componentType": 5126,
      "count": 12084,
      "max": [1, 0.8927007913589478, 1],
      "min": [-0.9999964833259583, -1, -1],
      "type": "VEC3"
    },
    {
      "bufferView": 18,
      "componentType": 5126,
      "count": 5316,
      "max": [385, 398.7119445800781, 2],
      "min": [91, 298, 0],
      "type": "VEC3"
    },
    {
      "bufferView": 19,
      "componentType": 5126,
      "count": 5316,
      "max": [398, 398.7119445800781],
      "min": [91, -1],
      "type": "VEC2"
    },
    {
      "bufferView": 20,
      "componentType": 5126,
      "count": 5316,
      "max": [0.8056104779243469, 0.9995487332344055, 1],
      "min": [-0.9999753832817078, -0.9778521060943604, -1],
      "type": "VEC3"
    },
    {
      "bufferView": 21,
      "componentType": 5126,
      "count": 5892,
      "max": [933, 399, 2],
      "min": [643, 298.2122802734375, 0],
      "type": "VEC3"
    },
    {
      "bufferView": 22,
      "componentType": 5126,
      "count": 5892,
      "max": [933, 399],
      "min": [299, -1],
      "type": "VEC2"
    },
    {
      "bufferView": 23,
      "componentType": 5126,
      "count": 5892,
      "max": [1, 0.9832636713981628, 1],
      "min": [-0.8739129304885864, -0.9999226927757263, -1],
      "type": "VEC3"
    },
    {
      "bufferView": 24,
      "componentType": 5126,
      "count": 3732,
      "max": [895, 419.3218078613281, 2],
      "min": [791.697998046875, 364, 0],
      "type": "VEC3"
    },
    {
      "bufferView": 25,
      "componentType": 5126,
      "count": 3732,
      "max": [895, 419.3218078613281],
      "min": [364, -1],
      "type": "VEC2"
    },
    {
      "bufferView": 26,
      "componentType": 5126,
      "count": 3732,
      "max": [1, 1, 1],
      "min": [-1, -0.9999997615814209, -1],
      "type": "VEC3"
    },
    {
      "bufferView": 27,
      "componentType": 5126,
      "count": 2292,
      "max": [232.48843383789062, 419.34765625, 2],
      "min": [129, 363, 0],
      "type": "VEC3"
    },
    {
      "bufferView": 28,
      "componentType": 5126,
      "count": 2292,
      "max": [413.5078125, 419.34765625],
      "min": [129, -1],
      "type": "VEC2"
    },
    {
      "bufferView": 29,
      "componentType": 5126,
      "count": 2292,
      "max": [1, 0.9998969435691833, 1],
      "min": [-0.9999396204948425, -0.9999510645866394, -1],
      "type": "VEC3"
    },
    {
      "bufferView": 30,
      "componentType": 5126,
      "count": 2436,
      "max": [476, 545.1231079101562, 2],
      "min": [420.5647277832031, 479, 0],
      "type": "VEC3"
    },
    {
      "bufferView": 31,
      "componentType": 5126,
      "count": 2436,
      "max": [538, 545.1231079101562],
      "min": [420.5647277832031, -1],
      "type": "VEC2"
    },
    {
      "bufferView": 32,
      "componentType": 5126,
      "count": 2436,
      "max": [0.9999994039535522, 0.999973714351654, 1],
      "min": [-0.9995579123497009, -0.9999929666519165, -1],
      "type": "VEC3"
    },
    {
      "bufferView": 33,
      "componentType": 5126,
      "count": 1860,
      "max": [607.4229736328125, 545.2804565429688, 2],
      "min": [552, 479, 0],
      "type": "VEC3"
    },
    {
      "bufferView": 34,
      "componentType": 5126,
      "count": 1860,
      "max": [607.4229736328125, 545.2804565429688],
      "min": [479, -1],
      "type": "VEC2"
    },
    {
      "bufferView": 35,
      "componentType": 5126,
      "count": 1860,
      "max": [0.9998981952667236, 0.9995785355567932, 1],
      "min": [-0.9996691942214966, -0.999492883682251, -1],
      "type": "VEC3"
    }
  ],
  "materials": [
    {
      "pbrMetallicRoughness": {
        "baseColorFactor": [
          0.0027317428517647058, 0.001214107934117647, 0.054480276435339814, 1
        ],
        "metallicFactor": 0,
        "roughnessFactor": 1
      }
    },
    {
      "pbrMetallicRoughness": {
        "baseColorFactor": [
          0.009134058699157796, 0.85499260812105, 0.9046611743890203, 1
        ],
        "metallicFactor": 0,
        "roughnessFactor": 1
      }
    },
    {
      "pbrMetallicRoughness": {
        "baseColorFactor": [
          0.009134058699157796, 0.8631572134510892, 0.9046611743890203, 1
        ],
        "metallicFactor": 0,
        "roughnessFactor": 1
      }
    },
    {
      "pbrMetallicRoughness": {
        "baseColorFactor": [
          0.009134058699157796, 0.8468732315065057, 0.8962693533719567, 1
        ],
        "metallicFactor": 0,
        "roughnessFactor": 1
      }
    },
    {
      "pbrMetallicRoughness": {
        "baseColorFactor": [
          0.009134058699157796, 0.8468732315065057, 0.8962693533719567, 1
        ],
        "metallicFactor": 0,
        "roughnessFactor": 1
      }
    },
    {
      "pbrMetallicRoughness": {
        "baseColorFactor": [
          0.009134058699157796, 0.85499260812105, 0.9046611743890203, 1
        ],
        "metallicFactor": 0,
        "roughnessFactor": 1
      }
    },
    {
      "pbrMetallicRoughness": {
        "baseColorFactor": [
          0.009134058699157796, 0.8468732315065057, 0.8962693533719567, 1
        ],
        "metallicFactor": 0,
        "roughnessFactor": 1
      }
    },
    {
      "pbrMetallicRoughness": {
        "baseColorFactor": [
          0.009134058699157796, 0.85499260812105, 0.9046611743890203, 1
        ],
        "metallicFactor": 0,
        "roughnessFactor": 1
      }
    },
    {
      "pbrMetallicRoughness": {
        "baseColorFactor": [
          0.009134058699157796, 0.85499260812105, 0.9046611743890203, 1
        ],
        "metallicFactor": 0,
        "roughnessFactor": 1
      }
    },
    {
      "pbrMetallicRoughness": {
        "baseColorFactor": [
          0.009134058699157796, 0.85499260812105, 0.9046611743890203, 1
        ],
        "metallicFactor": 0,
        "roughnessFactor": 1
      }
    },
    {
      "pbrMetallicRoughness": {
        "baseColorFactor": [
          0.009134058699157796, 0.8468732315065057, 0.8962693533719567, 1
        ],
        "metallicFactor": 0,
        "roughnessFactor": 1
      }
    },
    {
      "pbrMetallicRoughness": {
        "baseColorFactor": [
          0.009134058699157796, 0.8468732315065057, 0.8962693533719567, 1
        ],
        "metallicFactor": 0,
        "roughnessFactor": 1
      }
    }
  ],
  "meshes": [
    {
      "primitives": [
        {
          "mode": 4,
          "attributes": { "POSITION": 0, "TEXCOORD_0": 1, "NORMAL": 2 },
          "material": 0
        }
      ]
    },
    {
      "primitives": [
        {
          "mode": 4,
          "attributes": { "POSITION": 3, "TEXCOORD_0": 4, "NORMAL": 5 },
          "material": 1
        }
      ]
    },
    {
      "primitives": [
        {
          "mode": 4,
          "attributes": { "POSITION": 6, "TEXCOORD_0": 7, "NORMAL": 8 },
          "material": 2
        }
      ]
    },
    {
      "primitives": [
        {
          "mode": 4,
          "attributes": { "POSITION": 9, "TEXCOORD_0": 10, "NORMAL": 11 },
          "material": 3
        }
      ]
    },
    {
      "primitives": [
        {
          "mode": 4,
          "attributes": { "POSITION": 12, "TEXCOORD_0": 13, "NORMAL": 14 },
          "material": 4
        }
      ]
    },
    {
      "primitives": [
        {
          "mode": 4,
          "attributes": { "POSITION": 15, "TEXCOORD_0": 16, "NORMAL": 17 },
          "material": 5
        }
      ]
    },
    {
      "primitives": [
        {
          "mode": 4,
          "attributes": { "POSITION": 18, "TEXCOORD_0": 19, "NORMAL": 20 },
          "material": 6
        }
      ]
    },
    {
      "primitives": [
        {
          "mode": 4,
          "attributes": { "POSITION": 21, "TEXCOORD_0": 22, "NORMAL": 23 },
          "material": 7
        }
      ]
    },
    {
      "primitives": [
        {
          "mode": 4,
          "attributes": { "POSITION": 24, "TEXCOORD_0": 25, "NORMAL": 26 },
          "material": 8
        }
      ]
    },
    {
      "primitives": [
        {
          "mode": 4,
          "attributes": { "POSITION": 27, "TEXCOORD_0": 28, "NORMAL": 29 },
          "material": 9
        }
      ]
    },
    {
      "primitives": [
        {
          "mode": 4,
          "attributes": { "POSITION": 30, "TEXCOORD_0": 31, "NORMAL": 32 },
          "material": 10
        }
      ]
    },
    {
      "primitives": [
        {
          "mode": 4,
          "attributes": { "POSITION": 33, "TEXCOORD_0": 34, "NORMAL": 35 },
          "material": 11
        }
      ]
    }
  ]
}
