{"asset":{"version":"2.0","generator":"THREE.GLTFExporter r172"},"scenes":[{"name":"AuxScene","nodes":[1]}],"scene":0,"nodes":[{"mesh":0},{"matrix":[0.0072862201457216235,0,0,0,0,-0.0072862201457216235,8.923046179340948e-19,0,0,-4.3230032009901565e-17,-0.353,0,-2.2661577540706617,2.5,0,1],"children":[0]}],"bufferViews":[{"buffer":0,"byteOffset":0,"byteLength":26352,"target":34962,"byteStride":12},{"buffer":0,"byteOffset":26352,"byteLength":17568,"target":34962,"byteStride":8},{"buffer":0,"byteOffset":43920,"byteLength":26352,"target":34962,"byteStride":12}],"buffers":[{"byteLength":70272,"uri":"data:application/octet-stream;base64,"}],"accessors":[{"bufferView":0,"componentType":5126,"count":2196,"max":[649.9393310546875,723.2000122070312,2],"min":[27.899999618530273,36.973148345947266,0],"type":"VEC3"},{"bufferView":1,"componentType":5126,"count":2196,"max":[723.2000122070312,723.2000122070312],"min":[27.899999618530273,-1],"type":"VEC2"},{"bufferView":2,"componentType":5126,"count":2196,"max":[1,0.999708354473114,1],"min":[-0.9999942779541016,-0.9998995065689087,-1],"type":"VEC3"}],"materials":[{"pbrMetallicRoughness":{"baseColorFactor":[0.006512090790025684,0.5028864580233624,0.4286904966038916,1],"metallicFactor":0,"roughnessFactor":1}}],"meshes":[{"primitives":[{"mode":4,"attributes":{"POSITION":0,"TEXCOORD_0":1,"NORMAL":2},"material":0}]}]}