{"asset":{"version":"2.0","generator":"THREE.GLTFExporter r172"},"scenes":[{"name":"AuxScene","nodes":[2]}],"scene":0,"nodes":[{"mesh":0},{"mesh":1},{"matrix":[0.2272727272727273,0,0,0,0,-0.2272727272727273,2.783288179880349e-17,0,0,-4.1515526491095274e-17,-0.339,0,-1.9325605305758389,2.5000000000000004,0,1],"children":[0,1]}],"bufferViews":[{"buffer":0,"byteOffset":0,"byteLength":7056,"target":34962,"byteStride":12},{"buffer":0,"byteOffset":7056,"byteLength":4704,"target":34962,"byteStride":8},{"buffer":0,"byteOffset":11760,"byteLength":7056,"target":34962,"byteStride":12},{"buffer":0,"byteOffset":18816,"byteLength":3600,"target":34962,"byteStride":12},{"buffer":0,"byteOffset":22416,"byteLength":2400,"target":34962,"byteStride":8},{"buffer":0,"byteOffset":24816,"byteLength":3600,"target":34962,"byteStride":12}],"buffers":[{"byteLength":28416,"uri":"data:application/octet-stream;base64,"}],"accessors":[{"bufferView":0,"componentType":5126,"count":588,"max":[17.006532669067383,23,2],"min":[9,7.014534950256348,0],"type":"VEC3"},{"bufferView":1,"componentType":5126,"count":588,"max":[23,23],"min":[7.149055004119873,-1],"type":"VEC2"},{"bufferView":2,"componentType":5126,"count":588,"max":[1,0.9980226755142212,1],"min":[-1,-0.9998978972434998,-1],"type":"VEC3"},{"bufferView":3,"componentType":5126,"count":300,"max":[8,23,2],"min":[0,1,0],"type":"VEC3"},{"bufferView":4,"componentType":5126,"count":300,"max":[23,23],"min":[0,-1],"type":"VEC2"},{"bufferView":5,"componentType":5126,"count":300,"max":[1,0.9972726106643677,1],"min":[-1,-0.9972726106643677,-1],"type":"VEC3"}],"materials":[{"pbrMetallicRoughness":{"baseColorFactor":[0,0,0,1],"metallicFactor":0,"roughnessFactor":1}},{"pbrMetallicRoughness":{"baseColorFactor":[0,0,0,1],"metallicFactor":0,"roughnessFactor":1}}],"meshes":[{"primitives":[{"mode":4,"attributes":{"POSITION":0,"TEXCOORD_0":1,"NORMAL":2},"material":0}]},{"primitives":[{"mode":4,"attributes":{"POSITION":3,"TEXCOORD_0":4,"NORMAL":5},"material":1}]}]}