{"asset":{"version":"2.0","generator":"THREE.GLTFExporter r172"},"scenes":[{"name":"AuxScene","nodes":[5]}],"scene":0,"nodes":[{"mesh":0},{"matrix":[1,0,0,0,0,1,0,0,0,0,1,0,0,0,-0.04,1],"mesh":1},{"matrix":[1,0,0,0,0,1,0,0,0,0,1,0,0,0,-0.08,1],"mesh":2},{"matrix":[1,0,0,0,0,1,0,0,0,0,1,0,0,0,-0.12,1],"mesh":3},{"matrix":[1,0,0,0,0,1,0,0,0,0,1,0,0,0,-0.16,1],"mesh":4},{"matrix":[0.026246562165927075,0,0,0,0,-0.026246562165927075,3.2142768345124615e-18,0,0,-4.8373548566320456e-17,-0.395,0,-2.5,2.499985046304552,0,1],"children":[0,1,2,3,4]}],"bufferViews":[{"buffer":0,"byteOffset":0,"byteLength":6912,"target":34962,"byteStride":12},{"buffer":0,"byteOffset":6912,"byteLength":4608,"target":34962,"byteStride":8},{"buffer":0,"byteOffset":11520,"byteLength":6912,"target":34962,"byteStride":12},{"buffer":0,"byteOffset":18432,"byteLength":17928,"target":34962,"byteStride":12},{"buffer":0,"byteOffset":36360,"byteLength":11952,"target":34962,"byteStride":8},{"buffer":0,"byteOffset":48312,"byteLength":17928,"target":34962,"byteStride":12},{"buffer":0,"byteOffset":66240,"byteLength":21744,"target":34962,"byteStride":12},{"buffer":0,"byteOffset":87984,"byteLength":14496,"target":34962,"byteStride":8},{"buffer":0,"byteOffset":102480,"byteLength":21744,"target":34962,"byteStride":12},{"buffer":0,"byteOffset":124224,"byteLength":6768,"target":34962,"byteStride":12},{"buffer":0,"byteOffset":130992,"byteLength":4512,"target":34962,"byteStride":8},{"buffer":0,"byteOffset":135504,"byteLength":6768,"target":34962,"byteStride":12},{"buffer":0,"byteOffset":142272,"byteLength":21888,"target":34962,"byteStride":12},{"buffer":0,"byteOffset":164160,"byteLength":14592,"target":34962,"byteStride":8},{"buffer":0,"byteOffset":178752,"byteLength":21888,"target":34962,"byteStride":12}],"buffers":[{"byteLength":200640,"uri":"data:application/octet-stream;base64,"}],"accessors":[{"bufferView":0,"componentType":5126,"count":576,"max":[142.87899780273438,142.8730010986328,2],"min":[47.625,47.617000579833984,0],"type":"VEC3"},{"bufferView":1,"componentType":5126,"count":576,"max":[142.87899780273438,142.8730010986328],"min":[47.625,-1],"type":"VEC2"},{"bufferView":2,"componentType":5126,"count":576,"max":[1,0.9977445006370544,1],"min":[-0.9977447986602783,-0.997744619846344,-1],"type":"VEC3"},{"bufferView":3,"componentType":5126,"count":1494,"max":[136.4980010986328,190.5,2],"min":[-0.0011394784087315202,47.63999938964844,0],"type":"VEC3"},{"bufferView":4,"componentType":5126,"count":1494,"max":[190.5,190.5],"min":[-0.0011394784087315202,-1],"type":"VEC2"},{"bufferView":5,"componentType":5126,"count":1494,"max":[1,0.9997676014900208,1],"min":[-0.9997625946998596,-0.9997650980949402,-1],"type":"VEC3"},{"bufferView":6,"componentType":5126,"count":1812,"max":[190.5,190.4969940185547,2],"min":[95.23899841308594,47.625,0],"type":"VEC3"},{"bufferView":7,"componentType":5126,"count":1812,"max":[190.5,190.4969940185547],"min":[47.625,-1],"type":"VEC2"},{"bufferView":8,"componentType":5126,"count":1812,"max":[1,0.9999455213546753,1],"min":[-0.9997623562812805,-1,-1],"type":"VEC3"},{"bufferView":9,"componentType":5126,"count":564,"max":[132.95700073242188,132.96099853515625,2],"min":[57.547000885009766,57.54999923706055,0],"type":"VEC3"},{"bufferView":10,"componentType":5126,"count":564,"max":[132.95700073242188,132.96099853515625],"min":[57.547000885009766,-1],"type":"VEC2"},{"bufferView":11,"componentType":5126,"count":564,"max":[0.9977448582649231,0.9977448582649231,1],"min":[-0.9977447390556335,-0.9977449774742126,-1],"type":"VEC3"},{"bufferView":12,"componentType":5126,"count":1824,"max":[177.7310028076172,119.07499694824219,2],"min":[12.765999794006348,0,0],"type":"VEC3"},{"bufferView":13,"componentType":5126,"count":1824,"max":[177.7310028076172,119.07499694824219],"min":[0,-1],"type":"VEC2"},{"bufferView":14,"componentType":5126,"count":1824,"max":[1,1,1],"min":[-0.8660261034965515,-0.9999412894248962,-1],"type":"VEC3"}],"materials":[{"pbrMetallicRoughness":{"metallicFactor":0,"roughnessFactor":1}},{"pbrMetallicRoughness":{"baseColorFactor":[0.015996293361446288,0.2917706498067337,0.054480276435339814,1],"metallicFactor":0,"roughnessFactor":1}},{"pbrMetallicRoughness":{"baseColorFactor":[0.9646862478936612,0.5332764040016892,0.008023192982520563,1],"metallicFactor":0,"roughnessFactor":1}},{"pbrMetallicRoughness":{"baseColorFactor":[0.010329823026364548,0.171441100722554,0.8069522576650873,1],"metallicFactor":0,"roughnessFactor":1}},{"pbrMetallicRoughness":{"baseColorFactor":[0.7681511472425809,0.04373502925049377,0.02732089163382382,1],"metallicFactor":0,"roughnessFactor":1}}],"meshes":[{"primitives":[{"mode":4,"attributes":{"POSITION":0,"TEXCOORD_0":1,"NORMAL":2},"material":0}]},{"primitives":[{"mode":4,"attributes":{"POSITION":3,"TEXCOORD_0":4,"NORMAL":5},"material":1}]},{"primitives":[{"mode":4,"attributes":{"POSITION":6,"TEXCOORD_0":7,"NORMAL":8},"material":2}]},{"primitives":[{"mode":4,"attributes":{"POSITION":9,"TEXCOORD_0":10,"NORMAL":11},"material":3}]},{"primitives":[{"mode":4,"attributes":{"POSITION":12,"TEXCOORD_0":13,"NORMAL":14},"material":4}]}]}