{"asset":{"version":"2.0","generator":"THREE.GLTFExporter r172"},"scenes":[{"name":"AuxScene","nodes":[5]}],"scene":0,"nodes":[{"mesh":0},{"mesh":1},{"mesh":2},{"mesh":3},{"mesh":4},{"matrix":[0.0227273296753465,0,0,0,0,-0.0227273296753465,2.7832951540079743e-18,0,0,-4.1515526491095274e-17,-0.339,0,-2.5,2.477281160509719,0,1],"children":[0,1,2,3,4]}],"bufferViews":[{"buffer":0,"byteOffset":0,"byteLength":14688,"target":34962,"byteStride":12},{"buffer":0,"byteOffset":14688,"byteLength":9792,"target":34962,"byteStride":8},{"buffer":0,"byteOffset":24480,"byteLength":14688,"target":34962,"byteStride":12},{"buffer":0,"byteOffset":39168,"byteLength":22320,"target":34962,"byteStride":12},{"buffer":0,"byteOffset":61488,"byteLength":14880,"target":34962,"byteStride":8},{"buffer":0,"byteOffset":76368,"byteLength":22320,"target":34962,"byteStride":12},{"buffer":0,"byteOffset":98688,"byteLength":14688,"target":34962,"byteStride":12},{"buffer":0,"byteOffset":113376,"byteLength":9792,"target":34962,"byteStride":8},{"buffer":0,"byteOffset":123168,"byteLength":14688,"target":34962,"byteStride":12},{"buffer":0,"byteOffset":137856,"byteLength":576,"target":34962,"byteStride":12},{"buffer":0,"byteOffset":138432,"byteLength":384,"target":34962,"byteStride":8},{"buffer":0,"byteOffset":138816,"byteLength":576,"target":34962,"byteStride":12},{"buffer":0,"byteOffset":139392,"byteLength":14688,"target":34962,"byteStride":12},{"buffer":0,"byteOffset":154080,"byteLength":9792,"target":34962,"byteStride":8},{"buffer":0,"byteOffset":163872,"byteLength":14688,"target":34962,"byteStride":12}],"buffers":[{"byteLength":178560,"uri":"data:application/octet-stream;base64,"}],"accessors":[{"bufferView":0,"componentType":5126,"count":1224,"max":[208.99966430664062,218.00082397460938,2],"min":[11.000222206115723,152.7676239013672,0],"type":"VEC3"},{"bufferView":1,"componentType":5126,"count":1224,"max":[208.99966430664062,218.00082397460938],"min":[11.000222206115723,-1],"type":"VEC2"},{"bufferView":2,"componentType":5126,"count":1224,"max":[1,0.9999932050704956,1],"min":[-0.9982170462608337,-0.9983782768249512,-1],"type":"VEC3"},{"bufferView":3,"componentType":5126,"count":1860,"max":[214.8315887451172,175.58384704589844,2],"min":[5.501027584075928,51.33440399169922,0],"type":"VEC3"},{"bufferView":4,"componentType":5126,"count":1860,"max":[214.8315887451172,175.58384704589844],"min":[5.501027584075928,-1],"type":"VEC2"},{"bufferView":5,"componentType":5126,"count":1860,"max":[1,0.9999954104423523,1],"min":[-0.9996889233589172,-0.999997079372406,-1],"type":"VEC3"},{"bufferView":6,"componentType":5126,"count":1224,"max":[219.99989318847656,131.60020446777344,2],"min":[0.10540740936994553,59.15614700317383,0],"type":"VEC3"},{"bufferView":7,"componentType":5126,"count":1224,"max":[219.99989318847656,131.60020446777344],"min":[0.10540740936994553,-1],"type":"VEC2"},{"bufferView":8,"componentType":5126,"count":1224,"max":[1,0.9999956488609314,1],"min":[-0.9981864094734192,-0.9983801245689392,-1],"type":"VEC3"},{"bufferView":9,"componentType":5126,"count":48,"max":[200.4550018310547,118.26000213623047,2],"min":[18.9060001373291,11.138999938964844,0],"type":"VEC3"},{"bufferView":10,"componentType":5126,"count":48,"max":[200.4550018310547,118.26000213623047],"min":[18.9060001373291,-1],"type":"VEC2"},{"bufferView":11,"componentType":5126,"count":48,"max":[1,0.8688915371894836,1],"min":[-0.5209938883781433,-0.8535704016685486,-1],"type":"VEC3"},{"bufferView":12,"componentType":5126,"count":1224,"max":[219.90292358398438,72.15225982666016,2],"min":[0.0004444444493856281,0.0006280961679294705,0],"type":"VEC3"},{"bufferView":13,"componentType":5126,"count":1224,"max":[219.90292358398438,72.15225982666016],"min":[0.0004444444493856281,-1],"type":"VEC2"},{"bufferView":14,"componentType":5126,"count":1224,"max":[1,0.9984307885169983,1],"min":[-1,-0.9999967813491821,-1],"type":"VEC3"}],"materials":[{"pbrMetallicRoughness":{"baseColorFactor":[0.005181516700061659,0.006048833020386069,0.0069954101845983935,1],"metallicFactor":0,"roughnessFactor":1}},{"pbrMetallicRoughness":{"baseColorFactor":[0.005181516700061659,0.006048833020386069,0.0069954101845983935,1],"metallicFactor":0,"roughnessFactor":1}},{"pbrMetallicRoughness":{"baseColorFactor":[0.005181516700061659,0.006048833020386069,0.0069954101845983935,1],"metallicFactor":0,"roughnessFactor":1}},{"pbrMetallicRoughness":{"baseColorFactor":[0.005181516700061659,0.006048833020386069,0.0069954101845983935,1],"metallicFactor":0,"roughnessFactor":1}},{"pbrMetallicRoughness":{"baseColorFactor":[0.005181516700061659,0.006048833020386069,0.0069954101845983935,1],"metallicFactor":0,"roughnessFactor":1}}],"meshes":[{"primitives":[{"mode":4,"attributes":{"POSITION":0,"TEXCOORD_0":1,"NORMAL":2},"material":0}]},{"primitives":[{"mode":4,"attributes":{"POSITION":3,"TEXCOORD_0":4,"NORMAL":5},"material":1}]},{"primitives":[{"mode":4,"attributes":{"POSITION":6,"TEXCOORD_0":7,"NORMAL":8},"material":2}]},{"primitives":[{"mode":4,"attributes":{"POSITION":9,"TEXCOORD_0":10,"NORMAL":11},"material":3}]},{"primitives":[{"mode":4,"attributes":{"POSITION":12,"TEXCOORD_0":13,"NORMAL":14},"material":4}]}]}