{"asset":{"version":"2.0","generator":"THREE.GLTFExporter r172"},"scenes":[{"name":"AuxScene","nodes":[1]}],"scene":0,"nodes":[{"mesh":0},{"matrix":[0.01953125,0,0,0,0,-0.01953125,2.3918882795846743e-18,0,0,-4.1515526491095274e-17,-0.339,0,-2.5,2.24609375,0,1],"children":[0]}],"bufferViews":[{"buffer":0,"byteOffset":0,"byteLength":21024,"target":34962,"byteStride":12},{"buffer":0,"byteOffset":21024,"byteLength":14016,"target":34962,"byteStride":8},{"buffer":0,"byteOffset":35040,"byteLength":21024,"target":34962,"byteStride":12}],"buffers":[{"byteLength":56064,"uri":"data:application/octet-stream;base64,"}],"accessors":[{"bufferView":0,"componentType":5126,"count":1752,"max":[256,230,2],"min":[0,0,0],"type":"VEC3"},{"bufferView":1,"componentType":5126,"count":1752,"max":[256,230],"min":[0,-1],"type":"VEC2"},{"bufferView":2,"componentType":5126,"count":1752,"max":[0.9996941685676575,0.9991519451141357,1],"min":[-0.999694287776947,-1,-1],"type":"VEC3"}],"materials":[{"pbrMetallicRoughness":{"baseColorFactor":[0,0,0.014443843592229466,1],"metallicFactor":0,"roughnessFactor":1}}],"meshes":[{"primitives":[{"mode":4,"attributes":{"POSITION":0,"TEXCOORD_0":1,"NORMAL":2},"material":0}]}]}