{"asset":{"version":"2.0","generator":"THREE.GLTFExporter r172"},"scenes":[{"name":"AuxScene","nodes":[1]}],"scene":0,"nodes":[{"mesh":0},{"matrix":[0.0048828125,0,0,0,0,-0.0048828125,5.979720698961686e-19,0,0,-4.8373548566320456e-17,-0.395,0,-2.5,2.438158243894577,0,1],"children":[0]}],"bufferViews":[{"buffer":0,"byteOffset":0,"byteLength":43056,"target":34962,"byteStride":12},{"buffer":0,"byteOffset":43056,"byteLength":28704,"target":34962,"byteStride":8},{"buffer":0,"byteOffset":71760,"byteLength":43056,"target":34962,"byteStride":12}],"buffers":[{"byteLength":114816,"uri":"data:application/octet-stream;base64,"}],"accessors":[{"bufferView":0,"componentType":5126,"count":3588,"max":[1024,998.6696166992188,2],"min":[0,0,0],"type":"VEC3"},{"bufferView":1,"componentType":5126,"count":3588,"max":[1024,998.6696166992188],"min":[0,-1],"type":"VEC2"},{"bufferView":2,"componentType":5126,"count":3588,"max":[0.9999992847442627,0.9999925494194031,1],"min":[-0.9999997019767761,-0.9988061189651489,-1],"type":"VEC3"}],"materials":[{"pbrMetallicRoughness":{"baseColorFactor":[0.010960094003125918,0.013702083043526807,0.01680737574872402,1],"metallicFactor":0,"roughnessFactor":1}}],"meshes":[{"primitives":[{"mode":4,"attributes":{"POSITION":0,"TEXCOORD_0":1,"NORMAL":2},"material":0}]}]}