{"asset":{"version":"2.0","generator":"THREE.GLTFExporter r172"},"scenes":[{"name":"AuxScene","nodes":[2]}],"scene":0,"nodes":[{"mesh":0},{"matrix":[1,0,0,0,0,1,0,0,0,0,1,0,0,0,-0.02040816326530612,1],"mesh":1},{"matrix":[0.01515278860513292,0,0,0,0,-0.01515278860513292,1.8556814063432516e-18,0,0,-4.1515526491095274e-17,-0.339,0,-1.9395475884204672,2.5,0,1],"children":[0,1]}],"bufferViews":[{"buffer":0,"byteOffset":0,"byteLength":24480,"target":34962,"byteStride":12},{"buffer":0,"byteOffset":24480,"byteLength":16320,"target":34962,"byteStride":8},{"buffer":0,"byteOffset":40800,"byteLength":24480,"target":34962,"byteStride":12},{"buffer":0,"byteOffset":65280,"byteLength":19368,"target":34962,"byteStride":12},{"buffer":0,"byteOffset":84648,"byteLength":12912,"target":34962,"byteStride":8},{"buffer":0,"byteOffset":97560,"byteLength":19368,"target":34962,"byteStride":12}],"buffers":[{"byteLength":116928,"uri":"data:application/octet-stream;base64,"}],"accessors":[{"bufferView":0,"componentType":5126,"count":2040,"max":[255.9987030029297,329.97259521484375,2],"min":[-0.0000625000029685907,0.00032870369614101946,0],"type":"VEC3"},{"bufferView":1,"componentType":5126,"count":2040,"max":[296.54400634765625,329.97259521484375],"min":[-0.0000625000029685907,-1],"type":"VEC2"},{"bufferView":2,"componentType":5126,"count":2040,"max":[1,1,1],"min":[-0.9998951554298401,-0.9995090961456299,-1],"type":"VEC3"},{"bufferView":3,"componentType":5126,"count":1614,"max":[213.6729278564453,277.09820556640625,2],"min":[43.19379806518555,53.69900131225586,0],"type":"VEC3"},{"bufferView":4,"componentType":5126,"count":1614,"max":[255.17796325683594,277.09820556640625],"min":[43.19379806518555,-1],"type":"VEC2"},{"bufferView":5,"componentType":5126,"count":1614,"max":[1,0.9999969005584717,1],"min":[-0.999924898147583,-0.647943913936615,-1],"type":"VEC3"}],"materials":[{"pbrMetallicRoughness":{"baseColorFactor":[1,0.10461648408208657,0.005605391621829108,1],"metallicFactor":0,"roughnessFactor":1}},{"pbrMetallicRoughness":{"baseColorFactor":[1,0.3094689228067428,0.09758734713304495,1],"metallicFactor":0,"roughnessFactor":1}}],"meshes":[{"primitives":[{"mode":4,"attributes":{"POSITION":0,"TEXCOORD_0":1,"NORMAL":2},"material":0}]},{"primitives":[{"mode":4,"attributes":{"POSITION":3,"TEXCOORD_0":4,"NORMAL":5},"material":1}]}]}