{"asset":{"version":"2.0","generator":"THREE.GLTFExporter r172"},"scenes":[{"name":"AuxScene","nodes":[4]}],"scene":0,"nodes":[{"mesh":0},{"mesh":1},{"mesh":2},{"mesh":3},{"matrix":[0.004537666509428841,0,0,0,0,-0.004537666509428841,5.557038766370173e-19,0,0,-4.1515526491095274e-17,-0.339,0,-2.5,0.874998241321876,0,1],"children":[0,1,2,3]}],"bufferViews":[{"buffer":0,"byteOffset":0,"byteLength":2160,"target":34962,"byteStride":12},{"buffer":0,"byteOffset":2160,"byteLength":1440,"target":34962,"byteStride":8},{"buffer":0,"byteOffset":3600,"byteLength":2160,"target":34962,"byteStride":12},{"buffer":0,"byteOffset":5760,"byteLength":6768,"target":34962,"byteStride":12},{"buffer":0,"byteOffset":12528,"byteLength":4512,"target":34962,"byteStride":8},{"buffer":0,"byteOffset":17040,"byteLength":6768,"target":34962,"byteStride":12},{"buffer":0,"byteOffset":23808,"byteLength":432,"target":34962,"byteStride":12},{"buffer":0,"byteOffset":24240,"byteLength":288,"target":34962,"byteStride":8},{"buffer":0,"byteOffset":24528,"byteLength":432,"target":34962,"byteStride":12},{"buffer":0,"byteOffset":24960,"byteLength":2160,"target":34962,"byteStride":12},{"buffer":0,"byteOffset":27120,"byteLength":1440,"target":34962,"byteStride":8},{"buffer":0,"byteOffset":28560,"byteLength":2160,"target":34962,"byteStride":12}],"buffers":[{"byteLength":30720,"uri":"data:application/octet-stream;base64,"}],"accessors":[{"bufferView":0,"componentType":5126,"count":180,"max":[416.4729919433594,385.6600036621094,2],"min":[0,0,0],"type":"VEC3"},{"bufferView":1,"componentType":5126,"count":180,"max":[416.4729919433594,385.6600036621094],"min":[0,-1],"type":"VEC2"},{"bufferView":2,"componentType":5126,"count":180,"max":[0.8706099987030029,1,1],"min":[-0.8706104159355164,-1,-1],"type":"VEC3"},{"bufferView":3,"componentType":5126,"count":564,"max":[1101.887939453125,192.8300018310547,2],"min":[903.3480224609375,0,0],"type":"VEC3"},{"bufferView":4,"componentType":5126,"count":564,"max":[1101.887939453125,192.8300018310547],"min":[28.239124298095703,-1],"type":"VEC2"},{"bufferView":5,"componentType":5126,"count":564,"max":[0.9976101517677307,0.9978721141815186,1],"min":[-0.9976097941398621,-0.9978722333908081,-1],"type":"VEC3"},{"bufferView":6,"componentType":5126,"count":36,"max":[652.239013671875,385.6600036621094,2],"min":[235.76600646972656,0,0],"type":"VEC3"},{"bufferView":7,"componentType":5126,"count":36,"max":[652.239013671875,385.6600036621094],"min":[0,-1],"type":"VEC2"},{"bufferView":8,"componentType":5126,"count":36,"max":[0.8706099390983582,1,1],"min":[-0.8706099987030029,-1,-1],"type":"VEC3"},{"bufferView":9,"componentType":5126,"count":180,"max":[886.7329711914062,385.6600036621094,2],"min":[470.25799560546875,0,0],"type":"VEC3"},{"bufferView":10,"componentType":5126,"count":180,"max":[886.7329711914062,385.6600036621094],"min":[0,-1],"type":"VEC2"},{"bufferView":11,"componentType":5126,"count":180,"max":[0.8706067800521851,1,1],"min":[-0.8706099987030029,-1,-1],"type":"VEC3"}],"materials":[{"pbrMetallicRoughness":{"baseColorFactor":[0.004776953478513362,0.005605391621829108,0.007499032040460618,1],"metallicFactor":0,"roughnessFactor":1}},{"pbrMetallicRoughness":{"baseColorFactor":[0.004776953478513362,0.005605391621829108,0.007499032040460618,1],"metallicFactor":0,"roughnessFactor":1}},{"pbrMetallicRoughness":{"baseColorFactor":[0.004776953478513362,0.005605391621829108,0.007499032040460618,1],"metallicFactor":0,"roughnessFactor":1}},{"pbrMetallicRoughness":{"baseColorFactor":[0.004776953478513362,0.005605391621829108,0.007499032040460618,1],"metallicFactor":0,"roughnessFactor":1}}],"meshes":[{"primitives":[{"mode":4,"attributes":{"POSITION":0,"TEXCOORD_0":1,"NORMAL":2},"material":0}]},{"primitives":[{"mode":4,"attributes":{"POSITION":3,"TEXCOORD_0":4,"NORMAL":5},"material":1}]},{"primitives":[{"mode":4,"attributes":{"POSITION":6,"TEXCOORD_0":7,"NORMAL":8},"material":2}]},{"primitives":[{"mode":4,"attributes":{"POSITION":9,"TEXCOORD_0":10,"NORMAL":11},"material":3}]}]}