{"asset":{"version":"2.0","generator":"THREE.GLTFExporter r172"},"scenes":[{"name":"AuxScene","nodes":[4]}],"scene":0,"nodes":[{"mesh":0},{"matrix":[1,0,0,0,0,1,0,0,0,0,1,0,0,0,-0.02040816326530612,1],"mesh":1},{"matrix":[1,0,0,0,0,1,0,0,0,0,1,0,0,0,-0.04081632653061224,1],"mesh":2},{"matrix":[1,0,0,0,0,1,0,0,0,0,1,0,0,0,-0.061224489795918366,1],"mesh":3},{"matrix":[0.027777777777777776,0,0,0,0,-0.027777777777777776,3.401796664298203e-18,0,0,-4.1515526491095274e-17,-0.339,0,-2.5,2.5,0,1],"children":[0,1,2,3]}],"bufferViews":[{"buffer":0,"byteOffset":0,"byteLength":3456,"target":34962,"byteStride":12},{"buffer":0,"byteOffset":3456,"byteLength":2304,"target":34962,"byteStride":8},{"buffer":0,"byteOffset":5760,"byteLength":3456,"target":34962,"byteStride":12},{"buffer":0,"byteOffset":9216,"byteLength":3456,"target":34962,"byteStride":12},{"buffer":0,"byteOffset":12672,"byteLength":2304,"target":34962,"byteStride":8},{"buffer":0,"byteOffset":14976,"byteLength":3456,"target":34962,"byteStride":12},{"buffer":0,"byteOffset":18432,"byteLength":2448,"target":34962,"byteStride":12},{"buffer":0,"byteOffset":20880,"byteLength":1632,"target":34962,"byteStride":8},{"buffer":0,"byteOffset":22512,"byteLength":2448,"target":34962,"byteStride":12},{"buffer":0,"byteOffset":24960,"byteLength":432,"target":34962,"byteStride":12},{"buffer":0,"byteOffset":25392,"byteLength":288,"target":34962,"byteStride":8},{"buffer":0,"byteOffset":25680,"byteLength":432,"target":34962,"byteStride":12}],"buffers":[{"byteLength":26112,"uri":"data:application/octet-stream;base64,"}],"accessors":[{"bufferView":0,"componentType":5126,"count":288,"max":[180,180,2],"min":[0,0,0],"type":"VEC3"},{"bufferView":1,"componentType":5126,"count":288,"max":[180,180],"min":[0,-1],"type":"VEC2"},{"bufferView":2,"componentType":5126,"count":288,"max":[1,0.9914448261260986,1],"min":[-0.9914448857307434,-0.9914448857307434,-1],"type":"VEC3"},{"bufferView":3,"componentType":5126,"count":288,"max":[177,177,2],"min":[3,3,0],"type":"VEC3"},{"bufferView":4,"componentType":5126,"count":288,"max":[177,177],"min":[3,-1],"type":"VEC2"},{"bufferView":5,"componentType":5126,"count":288,"max":[1,0.9914448857307434,1],"min":[-0.9914448857307434,-0.9914448857307434,-1],"type":"VEC3"},{"bufferView":6,"componentType":5126,"count":204,"max":[149.50799560546875,164.84500122070312,2],"min":[54,54,0],"type":"VEC3"},{"bufferView":7,"componentType":5126,"count":204,"max":[164.84500122070312,164.84500122070312],"min":[54,-1],"type":"VEC2"},{"bufferView":8,"componentType":5126,"count":204,"max":[1,1,1],"min":[-1,-1,-1],"type":"VEC3"},{"bufferView":9,"componentType":5126,"count":36,"max":[127,126,2],"min":[115,54,0],"type":"VEC3"},{"bufferView":10,"componentType":5126,"count":36,"max":[127,126],"min":[54,-1],"type":"VEC2"},{"bufferView":11,"componentType":5126,"count":36,"max":[1,1,1],"min":[-1,-1,-1],"type":"VEC3"}],"materials":[{"pbrMetallicRoughness":{"baseColorFactor":[0,0,0,1],"metallicFactor":0,"roughnessFactor":1}},{"pbrMetallicRoughness":{"baseColorFactor":[0,0,0,1],"metallicFactor":0,"roughnessFactor":1}},{"pbrMetallicRoughness":{"metallicFactor":0,"roughnessFactor":1}},{"pbrMetallicRoughness":{"metallicFactor":0,"roughnessFactor":1}}],"meshes":[{"primitives":[{"mode":4,"attributes":{"POSITION":0,"TEXCOORD_0":1,"NORMAL":2},"material":0}]},{"primitives":[{"mode":4,"attributes":{"POSITION":3,"TEXCOORD_0":4,"NORMAL":5},"material":1}]},{"primitives":[{"mode":4,"attributes":{"POSITION":6,"TEXCOORD_0":7,"NORMAL":8},"material":2}]},{"primitives":[{"mode":4,"attributes":{"POSITION":9,"TEXCOORD_0":10,"NORMAL":11},"material":3}]}]}