{"asset":{"version":"2.0","generator":"THREE.GLTFExporter r172"},"scenes":[{"name":"AuxScene","nodes":[8]}],"scene":0,"nodes":[{"mesh":0},{"mesh":1},{"mesh":2},{"mesh":3},{"mesh":4},{"mesh":5},{"mesh":6},{"mesh":7},{"matrix":[0.031248045089952572,0,0,0,0,-0.031248045089952572,3.8267818399022584e-18,0,0,-4.1515526491095274e-17,-0.339,0,-2.5,2.4998436071962047,0,1],"children":[0,1,2,3,4,5,6,7]}],"bufferViews":[{"buffer":0,"byteOffset":0,"byteLength":432,"target":34962,"byteStride":12},{"buffer":0,"byteOffset":432,"byteLength":288,"target":34962,"byteStride":8},{"buffer":0,"byteOffset":720,"byteLength":432,"target":34962,"byteStride":12},{"buffer":0,"byteOffset":1152,"byteLength":432,"target":34962,"byteStride":12},{"buffer":0,"byteOffset":1584,"byteLength":288,"target":34962,"byteStride":8},{"buffer":0,"byteOffset":1872,"byteLength":432,"target":34962,"byteStride":12},{"buffer":0,"byteOffset":2304,"byteLength":432,"target":34962,"byteStride":12},{"buffer":0,"byteOffset":2736,"byteLength":288,"target":34962,"byteStride":8},{"buffer":0,"byteOffset":3024,"byteLength":432,"target":34962,"byteStride":12},{"buffer":0,"byteOffset":3456,"byteLength":432,"target":34962,"byteStride":12},{"buffer":0,"byteOffset":3888,"byteLength":288,"target":34962,"byteStride":8},{"buffer":0,"byteOffset":4176,"byteLength":432,"target":34962,"byteStride":12},{"buffer":0,"byteOffset":4608,"byteLength":432,"target":34962,"byteStride":12},{"buffer":0,"byteOffset":5040,"byteLength":288,"target":34962,"byteStride":8},{"buffer":0,"byteOffset":5328,"byteLength":432,"target":34962,"byteStride":12},{"buffer":0,"byteOffset":5760,"byteLength":432,"target":34962,"byteStride":12},{"buffer":0,"byteOffset":6192,"byteLength":288,"target":34962,"byteStride":8},{"buffer":0,"byteOffset":6480,"byteLength":432,"target":34962,"byteStride":12},{"buffer":0,"byteOffset":6912,"byteLength":432,"target":34962,"byteStride":12},{"buffer":0,"byteOffset":7344,"byteLength":288,"target":34962,"byteStride":8},{"buffer":0,"byteOffset":7632,"byteLength":432,"target":34962,"byteStride":12},{"buffer":0,"byteOffset":8064,"byteLength":432,"target":34962,"byteStride":12},{"buffer":0,"byteOffset":8496,"byteLength":288,"target":34962,"byteStride":8},{"buffer":0,"byteOffset":8784,"byteLength":432,"target":34962,"byteStride":12}],"buffers":[{"byteLength":9216,"uri":"data:application/octet-stream;base64,"}],"accessors":[{"bufferView":0,"componentType":5126,"count":36,"max":[237.60000610351562,95,2],"min":[187.60000610351562,45,0],"type":"VEC3"},{"bufferView":1,"componentType":5126,"count":36,"max":[237.60000610351562,95],"min":[45,-1],"type":"VEC2"},{"bufferView":2,"componentType":5126,"count":36,"max":[1,1,1],"min":[-1,-1,-1],"type":"VEC3"},{"bufferView":3,"componentType":5126,"count":36,"max":[182.58999633789062,95,2],"min":[132.58999633789062,45,0],"type":"VEC3"},{"bufferView":4,"componentType":5126,"count":36,"max":[182.58999633789062,95],"min":[45,-1],"type":"VEC2"},{"bufferView":5,"componentType":5126,"count":36,"max":[1,1,1],"min":[-1,-1,-1],"type":"VEC3"},{"bufferView":6,"componentType":5126,"count":36,"max":[127.58999633789062,95,2],"min":[77.58999633789062,45,0],"type":"VEC3"},{"bufferView":7,"componentType":5126,"count":36,"max":[127.58999633789062,95],"min":[45,-1],"type":"VEC2"},{"bufferView":8,"componentType":5126,"count":36,"max":[1,1,1],"min":[-1,-1,-1],"type":"VEC3"},{"bufferView":9,"componentType":5126,"count":36,"max":[237.60000610351562,150,2],"min":[187.60000610351562,100,0],"type":"VEC3"},{"bufferView":10,"componentType":5126,"count":36,"max":[237.60000610351562,150],"min":[100,-1],"type":"VEC2"},{"bufferView":11,"componentType":5126,"count":36,"max":[1,1,1],"min":[-1,-1,-1],"type":"VEC3"},{"bufferView":12,"componentType":5126,"count":36,"max":[182.58999633789062,150,2],"min":[132.58999633789062,100,0],"type":"VEC3"},{"bufferView":13,"componentType":5126,"count":36,"max":[182.58999633789062,150],"min":[100,-1],"type":"VEC2"},{"bufferView":14,"componentType":5126,"count":36,"max":[1,1,1],"min":[-1,-1,-1],"type":"VEC3"},{"bufferView":15,"componentType":5126,"count":36,"max":[182.58999633789062,205,2],"min":[132.58999633789062,155,0],"type":"VEC3"},{"bufferView":16,"componentType":5126,"count":36,"max":[205,205],"min":[132.58999633789062,-1],"type":"VEC2"},{"bufferView":17,"componentType":5126,"count":36,"max":[1,1,1],"min":[-1,-1,-1],"type":"VEC3"},{"bufferView":18,"componentType":5126,"count":36,"max":[237.60000610351562,205,2],"min":[187.60000610351562,155,0],"type":"VEC3"},{"bufferView":19,"componentType":5126,"count":36,"max":[237.60000610351562,205],"min":[155,-1],"type":"VEC2"},{"bufferView":20,"componentType":5126,"count":36,"max":[1,1,1],"min":[-1,-1,-1],"type":"VEC3"},{"bufferView":21,"componentType":5126,"count":36,"max":[127.58999633789062,205,2],"min":[77.58999633789062,155,0],"type":"VEC3"},{"bufferView":22,"componentType":5126,"count":36,"max":[205,205],"min":[77.58999633789062,-1],"type":"VEC2"},{"bufferView":23,"componentType":5126,"count":36,"max":[1,1,1],"min":[-1,-1,-1],"type":"VEC3"}],"materials":[{"pbrMetallicRoughness":{"baseColorFactor":[0.9473065367320066,0.4178850708380236,0,1],"metallicFactor":0,"roughnessFactor":1}},{"pbrMetallicRoughness":{"baseColorFactor":[0.9473065367320066,0.4178850708380236,0,1],"metallicFactor":0,"roughnessFactor":1}},{"pbrMetallicRoughness":{"baseColorFactor":[0.9473065367320066,0.4178850708380236,0,1],"metallicFactor":0,"roughnessFactor":1}},{"pbrMetallicRoughness":{"baseColorFactor":[0.9473065367320066,0.4178850708380236,0,1],"metallicFactor":0,"roughnessFactor":1}},{"pbrMetallicRoughness":{"baseColorFactor":[0.07618538147321911,0.07618538147321911,0.07618538147321911,1],"metallicFactor":0,"roughnessFactor":1}},{"pbrMetallicRoughness":{"baseColorFactor":[0.07618538147321911,0.07618538147321911,0.07618538147321911,1],"metallicFactor":0,"roughnessFactor":1}},{"pbrMetallicRoughness":{"baseColorFactor":[0.07618538147321911,0.07618538147321911,0.07618538147321911,1],"metallicFactor":0,"roughnessFactor":1}},{"pbrMetallicRoughness":{"baseColorFactor":[0.07618538147321911,0.07618538147321911,0.07618538147321911,1],"metallicFactor":0,"roughnessFactor":1}}],"meshes":[{"primitives":[{"mode":4,"attributes":{"POSITION":0,"TEXCOORD_0":1,"NORMAL":2},"material":0}]},{"primitives":[{"mode":4,"attributes":{"POSITION":3,"TEXCOORD_0":4,"NORMAL":5},"material":1}]},{"primitives":[{"mode":4,"attributes":{"POSITION":6,"TEXCOORD_0":7,"NORMAL":8},"material":2}]},{"primitives":[{"mode":4,"attributes":{"POSITION":9,"TEXCOORD_0":10,"NORMAL":11},"material":3}]},{"primitives":[{"mode":4,"attributes":{"POSITION":12,"TEXCOORD_0":13,"NORMAL":14},"material":4}]},{"primitives":[{"mode":4,"attributes":{"POSITION":15,"TEXCOORD_0":16,"NORMAL":17},"material":5}]},{"primitives":[{"mode":4,"attributes":{"POSITION":18,"TEXCOORD_0":19,"NORMAL":20},"material":6}]},{"primitives":[{"mode":4,"attributes":{"POSITION":21,"TEXCOORD_0":22,"NORMAL":23},"material":7}]}]}