{"asset":{"version":"2.0","generator":"THREE.GLTFExporter r172"},"scenes":[{"name":"AuxScene","nodes":[11]}],"scene":0,"nodes":[{"mesh":0},{"matrix":[1,0,0,0,0,1,0,0,0,0,1,0,0,0,-0.1111111111111111,1],"mesh":1},{"matrix":[1,0,0,0,0,1,0,0,0,0,1,0,0,0,-0.2222222222222222,1],"mesh":2},{"matrix":[1,0,0,0,0,1,0,0,0,0,1,0,0,0,-0.3333333333333333,1],"mesh":3},{"matrix":[1,0,0,0,0,1,0,0,0,0,1,0,0,0,-0.4444444444444444,1],"mesh":4},{"matrix":[1,0,0,0,0,1,0,0,0,0,1,0,0,0,-0.5555555555555556,1],"mesh":5},{"matrix":[1,0,0,0,0,1,0,0,0,0,1,0,0,0,-0.6666666666666666,1],"mesh":6},{"matrix":[1,0,0,0,0,1,0,0,0,0,1,0,0,0,-0.7777777777777778,1],"mesh":7},{"matrix":[1,0,0,0,0,1,0,0,0,0,1,0,0,0,-0.8888888888888888,1],"mesh":8},{"matrix":[1,0,0,0,0,1,0,0,0,0,1,0,0,0,-1,1],"mesh":9},{"matrix":[1,0,0,0,0,1,0,0,0,0,1,0,0,0,-1.1111111111111112,1],"mesh":10},{"matrix":[0.012214223779122417,0,0,0,0,-0.012214223779122417,1.4958110055171757e-18,0,0,-4.1515526491095274e-17,-0.339,0,-2.4095527908993972,2.5,0,1],"children":[0,1,2,3,4,5,6,7,8,9,10]}],"bufferViews":[{"buffer":0,"byteOffset":0,"byteLength":35136,"target":34962,"byteStride":12},{"buffer":0,"byteOffset":35136,"byteLength":23424,"target":34962,"byteStride":8},{"buffer":0,"byteOffset":58560,"byteLength":35136,"target":34962,"byteStride":12},{"buffer":0,"byteOffset":93696,"byteLength":37008,"target":34962,"byteStride":12},{"buffer":0,"byteOffset":130704,"byteLength":24672,"target":34962,"byteStride":8},{"buffer":0,"byteOffset":155376,"byteLength":37008,"target":34962,"byteStride":12},{"buffer":0,"byteOffset":192384,"byteLength":6912,"target":34962,"byteStride":12},{"buffer":0,"byteOffset":199296,"byteLength":4608,"target":34962,"byteStride":8},{"buffer":0,"byteOffset":203904,"byteLength":6912,"target":34962,"byteStride":12},{"buffer":0,"byteOffset":210816,"byteLength":5184,"target":34962,"byteStride":12},{"buffer":0,"byteOffset":216000,"byteLength":3456,"target":34962,"byteStride":8},{"buffer":0,"byteOffset":219456,"byteLength":5184,"target":34962,"byteStride":12},{"buffer":0,"byteOffset":224640,"byteLength":3456,"target":34962,"byteStride":12},{"buffer":0,"byteOffset":228096,"byteLength":2304,"target":34962,"byteStride":8},{"buffer":0,"byteOffset":230400,"byteLength":3456,"target":34962,"byteStride":12},{"buffer":0,"byteOffset":233856,"byteLength":12384,"target":34962,"byteStride":12},{"buffer":0,"byteOffset":246240,"byteLength":8256,"target":34962,"byteStride":8},{"buffer":0,"byteOffset":254496,"byteLength":12384,"target":34962,"byteStride":12},{"buffer":0,"byteOffset":266880,"byteLength":8640,"target":34962,"byteStride":12},{"buffer":0,"byteOffset":275520,"byteLength":5760,"target":34962,"byteStride":8},{"buffer":0,"byteOffset":281280,"byteLength":8640,"target":34962,"byteStride":12},{"buffer":0,"byteOffset":289920,"byteLength":8496,"target":34962,"byteStride":12},{"buffer":0,"byteOffset":298416,"byteLength":5664,"target":34962,"byteStride":8},{"buffer":0,"byteOffset":304080,"byteLength":8496,"target":34962,"byteStride":12},{"buffer":0,"byteOffset":312576,"byteLength":6912,"target":34962,"byteStride":12},{"buffer":0,"byteOffset":319488,"byteLength":4608,"target":34962,"byteStride":8},{"buffer":0,"byteOffset":324096,"byteLength":6912,"target":34962,"byteStride":12},{"buffer":0,"byteOffset":331008,"byteLength":6840,"target":34962,"byteStride":12},{"buffer":0,"byteOffset":337848,"byteLength":4560,"target":34962,"byteStride":8},{"buffer":0,"byteOffset":342408,"byteLength":6840,"target":34962,"byteStride":12},{"buffer":0,"byteOffset":349248,"byteLength":3312,"target":34962,"byteStride":12},{"buffer":0,"byteOffset":352560,"byteLength":2208,"target":34962,"byteStride":8},{"buffer":0,"byteOffset":354768,"byteLength":3312,"target":34962,"byteStride":12}],"buffers":[{"byteLength":358080,"uri":"data:application/octet-stream;base64,"}],"accessors":[{"bufferView":0,"componentType":5126,"count":2928,"max":[413.6406555175781,426.5580139160156,2],"min":[19.45400047302246,18.70862579345703,0],"type":"VEC3"},{"bufferView":1,"componentType":5126,"count":2928,"max":[417.3815002441406,426.5580139160156],"min":[19.45400047302246,-1],"type":"VEC2"},{"bufferView":2,"componentType":5126,"count":2928,"max":[0.9989352226257324,0.9999912977218628,1],"min":[-1,-0.9999680519104004,-1],"type":"VEC3"},{"bufferView":3,"componentType":5126,"count":3084,"max":[413.6402893066406,426.6006164550781,2],"min":[19.448999404907227,18.707124710083008,0],"type":"VEC3"},{"bufferView":4,"componentType":5126,"count":3084,"max":[417.7715148925781,426.6006164550781],"min":[19.448999404907227,-1],"type":"VEC2"},{"bufferView":5,"componentType":5126,"count":3084,"max":[0.999555766582489,1,1],"min":[-0.9999738931655884,-0.9999677538871765,-1],"type":"VEC3"},{"bufferView":6,"componentType":5126,"count":576,"max":[328.3210144042969,427.4419250488281,2],"min":[215.41177368164062,286.4840087890625,0],"type":"VEC3"},{"bufferView":7,"componentType":5126,"count":576,"max":[416.0047912597656,427.4419250488281],"min":[215.41177368164062,-1],"type":"VEC2"},{"bufferView":8,"componentType":5126,"count":576,"max":[0.996109127998352,0.9998399019241333,1],"min":[-0.9999983906745911,-0.9984797239303589,-1],"type":"VEC3"},{"bufferView":9,"componentType":5126,"count":432,"max":[173.10400390625,311.6861572265625,2],"min":[19.091999053955078,24.01362419128418,0],"type":"VEC3"},{"bufferView":10,"componentType":5126,"count":432,"max":[304.03533935546875,311.6861572265625],"min":[19.091999053955078,-1],"type":"VEC2"},{"bufferView":11,"componentType":5126,"count":432,"max":[0.9963782429695129,0.9988647699356079,1],"min":[-0.9990432858467102,-0.9999054074287415,-1],"type":"VEC3"},{"bufferView":12,"componentType":5126,"count":288,"max":[411.21337890625,263.9530029296875,2],"min":[260.3489990234375,18.0831241607666,0],"type":"VEC3"},{"bufferView":13,"componentType":5126,"count":288,"max":[411.21337890625,263.9530029296875],"min":[26.207000732421875,-1],"type":"VEC2"},{"bufferView":14,"componentType":5126,"count":288,"max":[0.9989380240440369,0.5321823954582214,1],"min":[-0.9379029870033264,-0.9991281032562256,-1],"type":"VEC3"},{"bufferView":15,"componentType":5126,"count":1032,"max":[413.2889404296875,300.83111572265625,2],"min":[131.92649841308594,22.83300018310547,0],"type":"VEC3"},{"bufferView":16,"componentType":5126,"count":1032,"max":[412.3661193847656,295.34710693359375],"min":[40.87207794189453,-1],"type":"VEC2"},{"bufferView":17,"componentType":5126,"count":1032,"max":[0.9999587535858154,0.9996097087860107,1],"min":[-0.9999963045120239,-0.999714195728302,-1],"type":"VEC3"},{"bufferView":18,"componentType":5126,"count":720,"max":[215.778076171875,318.50189208984375,2],"min":[136.7026824951172,268.7742919921875,0],"type":"VEC3"},{"bufferView":19,"componentType":5126,"count":720,"max":[309.8079833984375,318.50189208984375],"min":[136.7026824951172,-1],"type":"VEC2"},{"bufferView":20,"componentType":5126,"count":720,"max":[1,0.9996387362480164,1],"min":[-0.9735660552978516,-0.9998020529747009,-1],"type":"VEC3"},{"bufferView":21,"componentType":5126,"count":708,"max":[210.15049743652344,274.0690002441406,2],"min":[130.26185607910156,124.04551696777344,0],"type":"VEC3"},{"bufferView":22,"componentType":5126,"count":708,"max":[274.0690002441406,274.0690002441406],"min":[129.8490447998047,-1],"type":"VEC2"},{"bufferView":23,"componentType":5126,"count":708,"max":[0.9999915957450867,0.999927282333374,1],"min":[-0.9999687671661377,-0.9999973177909851,-1],"type":"VEC3"},{"bufferView":24,"componentType":5126,"count":576,"max":[191.49099731445312,149.9898681640625,2],"min":[172.51699829101562,139.10842895507812,0],"type":"VEC3"},{"bufferView":25,"componentType":5126,"count":576,"max":[191.49099731445312,149.9898681640625],"min":[140.7676544189453,-1],"type":"VEC2"},{"bufferView":26,"componentType":5126,"count":576,"max":[0.9994643330574036,0.9979454874992371,1],"min":[-0.9996147751808167,-1,-1],"type":"VEC3"},{"bufferView":27,"componentType":5126,"count":570,"max":[331.9410095214844,145.83287048339844,2],"min":[312.9599914550781,134.9518585205078,0],"type":"VEC3"},{"bufferView":28,"componentType":5126,"count":570,"max":[331.9410095214844,145.83287048339844],"min":[136.61129760742188,-1],"type":"VEC2"},{"bufferView":29,"componentType":5126,"count":570,"max":[0.9995740652084351,0.997948408126831,1],"min":[-1,-0.9999920129776001,-1],"type":"VEC3"},{"bufferView":30,"componentType":5126,"count":276,"max":[350.7891845703125,248.781005859375,2],"min":[339.49700927734375,123.43199920654297,0],"type":"VEC3"},{"bufferView":31,"componentType":5126,"count":276,"max":[350.7891845703125,248.781005859375],"min":[123.43199920654297,-1],"type":"VEC2"},{"bufferView":32,"componentType":5126,"count":276,"max":[0.9999651312828064,0.5021397471427917,1],"min":[-0.996046781539917,-0.11836288869380951,-1],"type":"VEC3"}],"materials":[{"pbrMetallicRoughness":{"baseColorFactor":[0,0,0,1],"metallicFactor":0,"roughnessFactor":1}},{"pbrMetallicRoughness":{"baseColorFactor":[0.033104766565152086,0.13563332964548108,0.28314874041918053,1],"metallicFactor":0,"roughnessFactor":1}},{"pbrMetallicRoughness":{"metallicFactor":0,"roughnessFactor":1}},{"pbrMetallicRoughness":{"metallicFactor":0,"roughnessFactor":1}},{"pbrMetallicRoughness":{"metallicFactor":0,"roughnessFactor":1}},{"pbrMetallicRoughness":{"metallicFactor":0,"roughnessFactor":1}},{"pbrMetallicRoughness":{"metallicFactor":0,"roughnessFactor":1}},{"pbrMetallicRoughness":{"metallicFactor":0,"roughnessFactor":1}},{"pbrMetallicRoughness":{"metallicFactor":0,"roughnessFactor":1}},{"pbrMetallicRoughness":{"metallicFactor":0,"roughnessFactor":1}},{"pbrMetallicRoughness":{"metallicFactor":0,"roughnessFactor":1}}],"meshes":[{"primitives":[{"mode":4,"attributes":{"POSITION":0,"TEXCOORD_0":1,"NORMAL":2},"material":0}]},{"primitives":[{"mode":4,"attributes":{"POSITION":3,"TEXCOORD_0":4,"NORMAL":5},"material":1}]},{"primitives":[{"mode":4,"attributes":{"POSITION":6,"TEXCOORD_0":7,"NORMAL":8},"material":2}]},{"primitives":[{"mode":4,"attributes":{"POSITION":9,"TEXCOORD_0":10,"NORMAL":11},"material":3}]},{"primitives":[{"mode":4,"attributes":{"POSITION":12,"TEXCOORD_0":13,"NORMAL":14},"material":4}]},{"primitives":[{"mode":4,"attributes":{"POSITION":15,"TEXCOORD_0":16,"NORMAL":17},"material":5}]},{"primitives":[{"mode":4,"attributes":{"POSITION":18,"TEXCOORD_0":19,"NORMAL":20},"material":6}]},{"primitives":[{"mode":4,"attributes":{"POSITION":21,"TEXCOORD_0":22,"NORMAL":23},"material":7}]},{"primitives":[{"mode":4,"attributes":{"POSITION":24,"TEXCOORD_0":25,"NORMAL":26},"material":8}]},{"primitives":[{"mode":4,"attributes":{"POSITION":27,"TEXCOORD_0":28,"NORMAL":29},"material":9}]},{"primitives":[{"mode":4,"attributes":{"POSITION":30,"TEXCOORD_0":31,"NORMAL":32},"material":10}]}]}