{"asset":{"version":"2.0","generator":"THREE.GLTFExporter r172"},"scenes":[{"name":"AuxScene","nodes":[1]}],"scene":0,"nodes":[{"mesh":0},{"matrix":[0.016174446915427843,0,0,0,0,-0.016174446915427843,1.980798464295749e-18,0,0,-4.1515526491095274e-17,-0.339,0,-2.0703185028496307,2.5,0,1],"children":[0]}],"bufferViews":[{"buffer":0,"byteOffset":0,"byteLength":29808,"target":34962,"byteStride":12},{"buffer":0,"byteOffset":29808,"byteLength":19872,"target":34962,"byteStride":8},{"buffer":0,"byteOffset":49680,"byteLength":29808,"target":34962,"byteStride":12}],"buffers":[{"byteLength":79488,"uri":"data:application/octet-stream;base64,"}],"accessors":[{"bufferView":0,"componentType":5126,"count":2484,"max":[255.99948120117188,309.1327209472656,2],"min":[0.0008045632857829332,0.0031398157589137554,0],"type":"VEC3"},{"bufferView":1,"componentType":5126,"count":2484,"max":[303.8951721191406,309.1327209472656],"min":[0.0008045632857829332,-1],"type":"VEC2"},{"bufferView":2,"componentType":5126,"count":2484,"max":[1,1,1],"min":[-1,-0.9999992251396179,-1],"type":"VEC3"}],"materials":[{"pbrMetallicRoughness":{"baseColorFactor":[0,0,0,1],"metallicFactor":0,"roughnessFactor":1}}],"meshes":[{"primitives":[{"mode":4,"attributes":{"POSITION":0,"TEXCOORD_0":1,"NORMAL":2},"material":0}]}]}