{"asset":{"version":"2.0","generator":"THREE.GLTFExporter r172"},"scenes":[{"name":"AuxScene","nodes":[2]}],"scene":0,"nodes":[{"mesh":0},{"matrix":[1,0,0,0,0,1,0,0,0,0,1,0,0,0,-1,1],"mesh":1},{"matrix":[0.008787346221441124,0,0,0,0,-0.008787346221441124,1.0761395423087462e-18,0,0,-4.3230032009901565e-17,-0.353,0,-2.5,2.249093946815833,0,1],"children":[0,1]}],"bufferViews":[{"buffer":0,"byteOffset":0,"byteLength":6768,"target":34962,"byteStride":12},{"buffer":0,"byteOffset":6768,"byteLength":4512,"target":34962,"byteStride":8},{"buffer":0,"byteOffset":11280,"byteLength":6768,"target":34962,"byteStride":12},{"buffer":0,"byteOffset":18048,"byteLength":151920,"target":34962,"byteStride":12},{"buffer":0,"byteOffset":169968,"byteLength":101280,"target":34962,"byteStride":8},{"buffer":0,"byteOffset":271248,"byteLength":151920,"target":34962,"byteStride":12}],"buffers":[{"byteLength":423168,"uri":"data:application/octet-stream;base64,"}],"accessors":[{"bufferView":0,"componentType":5126,"count":564,"max":[340,310,2],"min":[231,201,0],"type":"VEC3"},{"bufferView":1,"componentType":5126,"count":564,"max":[340,310],"min":[216.96267700195312,-1],"type":"VEC2"},{"bufferView":2,"componentType":5126,"count":564,"max":[0.997744619846344,0.997744619846344,1],"min":[-0.997744619846344,-0.997744619846344,-1],"type":"VEC3"},{"bufferView":3,"componentType":5126,"count":12660,"max":[569,511.9918212890625,2],"min":[0,0.09803899377584457,0],"type":"VEC3"},{"bufferView":4,"componentType":5126,"count":12660,"max":[569,511.9918212890625],"min":[0,-1],"type":"VEC2"},{"bufferView":5,"componentType":5126,"count":12660,"max":[1,1,1],"min":[-0.9998440742492676,-1,-1],"type":"VEC3"}],"materials":[{"pbrMetallicRoughness":{"baseColorFactor":[0.002428215868235294,0.20863687013464577,0.3712376804636741,1],"metallicFactor":0,"roughnessFactor":1}},{"pbrMetallicRoughness":{"baseColorFactor":[0.002428215868235294,0.20863687013464577,0.3712376804636741,1],"metallicFactor":0,"roughnessFactor":1}}],"meshes":[{"primitives":[{"mode":4,"attributes":{"POSITION":0,"TEXCOORD_0":1,"NORMAL":2},"material":0}]},{"primitives":[{"mode":4,"attributes":{"POSITION":3,"TEXCOORD_0":4,"NORMAL":5},"material":1}]}]}