{"asset":{"version":"2.0","generator":"THREE.GLTFExporter r172"},"scenes":[{"name":"AuxScene","nodes":[2]}],"scene":0,"nodes":[{"mesh":0},{"matrix":[1,0,0,0,0,1,0,0,0,0,1,0,0,0,-0.02040816326530612,1],"mesh":1},{"matrix":[0.09259259259259259,0,0,0,0,-0.09259259259259259,1.1339322214327344e-17,0,0,-4.1515526491095274e-17,-0.339,0,-2.5,1.5000000706425416,0,1],"children":[0,1]}],"bufferViews":[{"buffer":0,"byteOffset":0,"byteLength":13680,"target":34962,"byteStride":12},{"buffer":0,"byteOffset":13680,"byteLength":9120,"target":34962,"byteStride":8},{"buffer":0,"byteOffset":22800,"byteLength":13680,"target":34962,"byteStride":12},{"buffer":0,"byteOffset":36480,"byteLength":13680,"target":34962,"byteStride":12},{"buffer":0,"byteOffset":50160,"byteLength":9120,"target":34962,"byteStride":8},{"buffer":0,"byteOffset":59280,"byteLength":13680,"target":34962,"byteStride":12}],"buffers":[{"byteLength":72960,"uri":"data:application/octet-stream;base64,"}],"accessors":[{"bufferView":0,"componentType":5126,"count":1140,"max":[54,16.200000762939453,2],"min":[13.5,0,0],"type":"VEC3"},{"bufferView":1,"componentType":5126,"count":1140,"max":[54,16.200000762939453],"min":[3.674999952316284,-1],"type":"VEC2"},{"bufferView":2,"componentType":5126,"count":1140,"max":[0.9595316648483276,0.9999396204948425,1],"min":[-0.9595313668251038,-0.9999396204948425,-1],"type":"VEC3"},{"bufferView":3,"componentType":5126,"count":1140,"max":[40.5,32.400001525878906,2],"min":[0,16.200000762939453,0],"type":"VEC3"},{"bufferView":4,"componentType":5126,"count":1140,"max":[40.5,32.400001525878906],"min":[0,-1],"type":"VEC2"},{"bufferView":5,"componentType":5126,"count":1140,"max":[0.9595316648483276,0.9999396204948425,1],"min":[-0.9595314264297485,-0.9999396204948425,-1],"type":"VEC3"}],"materials":[{"pbrMetallicRoughness":{"baseColorFactor":[0.03954623527052923,0.508881320845802,0.9386857284565036,1],"metallicFactor":0,"roughnessFactor":1}},{"pbrMetallicRoughness":{"baseColorFactor":[0.03954623527052923,0.508881320845802,0.9386857284565036,1],"metallicFactor":0,"roughnessFactor":1}}],"meshes":[{"primitives":[{"mode":4,"attributes":{"POSITION":0,"TEXCOORD_0":1,"NORMAL":2},"material":0}]},{"primitives":[{"mode":4,"attributes":{"POSITION":3,"TEXCOORD_0":4,"NORMAL":5},"material":1}]}]}