{"asset":{"version":"2.0","generator":"THREE.GLTFExporter r172"},"scenes":[{"name":"AuxScene","nodes":[1]}],"scene":0,"nodes":[{"mesh":0},{"matrix":[0.20833496824559694,0,0,0,0,-0.20833496824559694,2.5513675201243577e-17,0,0,-4.1515526491095274e-17,-0.339,0,-2.4757760830562385,2.4999999999999996,0,1],"children":[0]}],"bufferViews":[{"buffer":0,"byteOffset":0,"byteLength":34848,"target":34962,"byteStride":12},{"buffer":0,"byteOffset":34848,"byteLength":23232,"target":34962,"byteStride":8},{"buffer":0,"byteOffset":58080,"byteLength":34848,"target":34962,"byteStride":12}],"buffers":[{"byteLength":92928,"uri":"data:application/octet-stream;base64,"}],"accessors":[{"bufferView":0,"componentType":5126,"count":2904,"max":[23.8835391998291,23.99979019165039,2],"min":[0.11627531796693802,-0.00002146793485735543,0],"type":"VEC3"},{"bufferView":1,"componentType":5126,"count":2904,"max":[23.917783737182617,23.99979019165039],"min":[0,-1],"type":"VEC2"},{"bufferView":2,"componentType":5126,"count":2904,"max":[1,0.9996240735054016,1],"min":[-0.9997860193252563,-1,-1],"type":"VEC3"}],"materials":[{"pbrMetallicRoughness":{"baseColorFactor":[0,0,0,1],"metallicFactor":0,"roughnessFactor":1}}],"meshes":[{"primitives":[{"mode":4,"attributes":{"POSITION":0,"TEXCOORD_0":1,"NORMAL":2},"material":0}]}]}