{"asset":{"version":"2.0","generator":"THREE.GLTFExporter r172"},"scenes":[{"name":"AuxScene","nodes":[3]}],"scene":0,"nodes":[{"mesh":0},{"matrix":[1,0,0,0,0,1,0,0,0,0,1,0,0,0,-0.25,1],"mesh":1},{"matrix":[1,0,0,0,0,1,0,0,0,0,1,0,0,0,-0.5,1],"mesh":2},{"matrix":[0.01953125,0,0,0,0,-0.01953125,2.3918882795846743e-18,0,0,-4.665904304751416e-17,-0.381,0,-2.5,2.5,0,1],"children":[0,1,2]}],"bufferViews":[{"buffer":0,"byteOffset":0,"byteLength":7344,"target":34962,"byteStride":12},{"buffer":0,"byteOffset":7344,"byteLength":4896,"target":34962,"byteStride":8},{"buffer":0,"byteOffset":12240,"byteLength":7344,"target":34962,"byteStride":12},{"buffer":0,"byteOffset":19584,"byteLength":78624,"target":34962,"byteStride":12},{"buffer":0,"byteOffset":98208,"byteLength":52416,"target":34962,"byteStride":8},{"buffer":0,"byteOffset":150624,"byteLength":78624,"target":34962,"byteStride":12},{"buffer":0,"byteOffset":229248,"byteLength":1008,"target":34962,"byteStride":12},{"buffer":0,"byteOffset":230256,"byteLength":672,"target":34962,"byteStride":8},{"buffer":0,"byteOffset":230928,"byteLength":1008,"target":34962,"byteStride":12}],"buffers":[{"byteLength":231936,"uri":"data:application/octet-stream;base64,"}],"accessors":[{"bufferView":0,"componentType":5126,"count":612,"max":[256,256,2],"min":[0,0,0],"type":"VEC3"},{"bufferView":1,"componentType":5126,"count":612,"max":[256,256],"min":[0,-1],"type":"VEC2"},{"bufferView":2,"componentType":5126,"count":612,"max":[1,1,1],"min":[-1,-1,-1],"type":"VEC3"},{"bufferView":3,"componentType":5126,"count":6552,"max":[235,235,2],"min":[150,107,0],"type":"VEC3"},{"bufferView":4,"componentType":5126,"count":6552,"max":[235,235],"min":[111.74700164794922,-1],"type":"VEC2"},{"bufferView":5,"componentType":5126,"count":6552,"max":[1,0.999980628490448,1],"min":[-1,-0.9999871850013733,-1],"type":"VEC3"},{"bufferView":6,"componentType":5126,"count":84,"max":[140,233,2],"min":[41,109,0],"type":"VEC3"},{"bufferView":7,"componentType":5126,"count":84,"max":[233,233],"min":[41,-1],"type":"VEC2"},{"bufferView":8,"componentType":5126,"count":84,"max":[1,1,1],"min":[-1,-1,-1],"type":"VEC3"}],"materials":[{"pbrMetallicRoughness":{"baseColorFactor":[0.030713443727452196,0.1878207722902346,0.5647115056965487,1],"metallicFactor":0,"roughnessFactor":1}},{"pbrMetallicRoughness":{"metallicFactor":0,"roughnessFactor":1}},{"pbrMetallicRoughness":{"metallicFactor":0,"roughnessFactor":1}}],"meshes":[{"primitives":[{"mode":4,"attributes":{"POSITION":0,"TEXCOORD_0":1,"NORMAL":2},"material":0}]},{"primitives":[{"mode":4,"attributes":{"POSITION":3,"TEXCOORD_0":4,"NORMAL":5},"material":1}]},{"primitives":[{"mode":4,"attributes":{"POSITION":6,"TEXCOORD_0":7,"NORMAL":8},"material":2}]}]}