{"asset":{"version":"2.0","generator":"THREE.GLTFExporter r172"},"scenes":[{"name":"AuxScene","nodes":[1]}],"scene":0,"nodes":[{"mesh":0},{"matrix":[0.01953125,0,0,0,0,-0.01953125,2.3918882795846743e-18,0,0,-4.1515526491095274e-17,-0.339,0,-2.5,2.1650879085063934,0,1],"children":[0]}],"bufferViews":[{"buffer":0,"byteOffset":0,"byteLength":288,"target":34962,"byteStride":12},{"buffer":0,"byteOffset":288,"byteLength":192,"target":34962,"byteStride":8},{"buffer":0,"byteOffset":480,"byteLength":288,"target":34962,"byteStride":12}],"buffers":[{"byteLength":768,"uri":"data:application/octet-stream;base64,"}],"accessors":[{"bufferView":0,"componentType":5126,"count":24,"max":[256,221.7050018310547,2],"min":[0,0,0],"type":"VEC3"},{"bufferView":1,"componentType":5126,"count":24,"max":[256,221.7050018310547],"min":[0,-1],"type":"VEC2"},{"bufferView":2,"componentType":5126,"count":24,"max":[0.86602783203125,1,1],"min":[-0.86602783203125,-0.49999576807022095,-1],"type":"VEC3"}],"materials":[{"pbrMetallicRoughness":{"baseColorFactor":[0,0,0,1],"metallicFactor":0,"roughnessFactor":1}}],"meshes":[{"primitives":[{"mode":4,"attributes":{"POSITION":0,"TEXCOORD_0":1,"NORMAL":2},"material":0}]}]}