{"asset":{"version":"2.0","generator":"THREE.GLTFExporter r172"},"scenes":[{"name":"AuxScene","nodes":[3]}],"scene":0,"nodes":[{"mesh":0},{"mesh":1},{"mesh":2},{"matrix":[0.01952737230901978,0,0,0,0,-0.01952737230901978,2.3914133993999732e-18,0,0,-4.8373548566320456e-17,-0.395,0,-2.5,2.2801816170502605,0,1],"children":[0,1,2]}],"bufferViews":[{"buffer":0,"byteOffset":0,"byteLength":44928,"target":34962,"byteStride":12},{"buffer":0,"byteOffset":44928,"byteLength":29952,"target":34962,"byteStride":8},{"buffer":0,"byteOffset":74880,"byteLength":44928,"target":34962,"byteStride":12},{"buffer":0,"byteOffset":119808,"byteLength":17856,"target":34962,"byteStride":12},{"buffer":0,"byteOffset":137664,"byteLength":11904,"target":34962,"byteStride":8},{"buffer":0,"byteOffset":149568,"byteLength":17856,"target":34962,"byteStride":12},{"buffer":0,"byteOffset":167424,"byteLength":21888,"target":34962,"byteStride":12},{"buffer":0,"byteOffset":189312,"byteLength":14592,"target":34962,"byteStride":8},{"buffer":0,"byteOffset":203904,"byteLength":21888,"target":34962,"byteStride":12}],"buffers":[{"byteLength":225792,"uri":"data:application/octet-stream;base64,"}],"accessors":[{"bufferView":0,"componentType":5126,"count":3744,"max":[193.0442352294922,161.56678771972656,2],"min":[80.08867645263672,0.00003906767233274877,0],"type":"VEC3"},{"bufferView":1,"componentType":5126,"count":3744,"max":[193.0442352294922,161.56678771972656],"min":[1.5247471332550049,-1],"type":"VEC2"},{"bufferView":2,"componentType":5126,"count":3744,"max":[1,0.9999285936355591,1],"min":[-1,-0.9996820688247681,-1],"type":"VEC3"},{"bufferView":3,"componentType":5126,"count":1488,"max":[256.0694885253906,233.53700256347656,2],"min":[57.82717514038086,93.10401153564453,0],"type":"VEC3"},{"bufferView":4,"componentType":5126,"count":1488,"max":[256.0694885253906,233.53700256347656],"min":[57.82717514038086,-1],"type":"VEC2"},{"bufferView":5,"componentType":5126,"count":1488,"max":[1,0.9998872876167297,1],"min":[-0.999508261680603,-0.9995102286338806,-1],"type":"VEC3"},{"bufferView":6,"componentType":5126,"count":1824,"max":[198.17100524902344,233.53700256347656,2],"min":[0.018652761355042458,93.19364929199219,0],"type":"VEC3"},{"bufferView":7,"componentType":5126,"count":1824,"max":[198.17100524902344,233.53700256347656],"min":[0.018652761355042458,-1],"type":"VEC2"},{"bufferView":8,"componentType":5126,"count":1824,"max":[1,1,1],"min":[-0.9982091784477234,-0.9998828768730164,-1],"type":"VEC3"}],"materials":[{"pbrMetallicRoughness":{"baseColorFactor":[0.9734452903978066,0.5711248294565854,0.024157632443547246,1],"metallicFactor":0,"roughnessFactor":1}},{"pbrMetallicRoughness":{"baseColorFactor":[0.16826940017946088,0.3277780980458375,0.010960094003125918,1],"metallicFactor":0,"roughnessFactor":1}},{"pbrMetallicRoughness":{"baseColorFactor":[0.16826940017946088,0.3277780980458375,0.010960094003125918,1],"metallicFactor":0,"roughnessFactor":1}}],"meshes":[{"primitives":[{"mode":4,"attributes":{"POSITION":0,"TEXCOORD_0":1,"NORMAL":2},"material":0}]},{"primitives":[{"mode":4,"attributes":{"POSITION":3,"TEXCOORD_0":4,"NORMAL":5},"material":1}]},{"primitives":[{"mode":4,"attributes":{"POSITION":6,"TEXCOORD_0":7,"NORMAL":8},"material":2}]}]}