{"asset":{"version":"2.0","generator":"THREE.GLTFExporter r172"},"scenes":[{"name":"AuxScene","nodes":[5]}],"scene":0,"nodes":[{"mesh":0},{"matrix":[1,0,0,0,0,1,0,0,0,0,1,0,0,0,-0.02040816326530612,1],"mesh":1},{"matrix":[1,0,0,0,0,1,0,0,0,0,1,0,0,0,-0.04081632653061224,1],"mesh":2},{"matrix":[1,0,0,0,0,1,0,0,0,0,1,0,0,0,-0.061224489795918366,1],"mesh":3},{"matrix":[1,0,0,0,0,1,0,0,0,0,1,0,0,0,-0.08163265306122448,1],"mesh":4},{"matrix":[0.049969555207378814,0,0,0,0,-0.049969555207378814,6.119505583953342e-18,0,0,-4.1515526491095274e-17,-0.339,0,-2.5,2.4855979092231095,0,1],"children":[0,1,2,3,4]}],"bufferViews":[{"buffer":0,"byteOffset":0,"byteLength":34416,"target":34962,"byteStride":12},{"buffer":0,"byteOffset":34416,"byteLength":22944,"target":34962,"byteStride":8},{"buffer":0,"byteOffset":57360,"byteLength":34416,"target":34962,"byteStride":12},{"buffer":0,"byteOffset":91776,"byteLength":16704,"target":34962,"byteStride":12},{"buffer":0,"byteOffset":108480,"byteLength":11136,"target":34962,"byteStride":8},{"buffer":0,"byteOffset":119616,"byteLength":16704,"target":34962,"byteStride":12},{"buffer":0,"byteOffset":136320,"byteLength":16632,"target":34962,"byteStride":12},{"buffer":0,"byteOffset":152952,"byteLength":11088,"target":34962,"byteStride":8},{"buffer":0,"byteOffset":164040,"byteLength":16632,"target":34962,"byteStride":12},{"buffer":0,"byteOffset":180672,"byteLength":17928,"target":34962,"byteStride":12},{"buffer":0,"byteOffset":198600,"byteLength":11952,"target":34962,"byteStride":8},{"buffer":0,"byteOffset":210552,"byteLength":17928,"target":34962,"byteStride":12},{"buffer":0,"byteOffset":228480,"byteLength":34416,"target":34962,"byteStride":12},{"buffer":0,"byteOffset":262896,"byteLength":22944,"target":34962,"byteStride":8},{"buffer":0,"byteOffset":285840,"byteLength":34416,"target":34962,"byteStride":12}],"buffers":[{"byteLength":320256,"uri":"data:application/octet-stream;base64,"}],"accessors":[{"bufferView":0,"componentType":5126,"count":2868,"max":[100,99.74243927001953,2],"min":[0.00007331748929573223,0.2589956521987915,0],"type":"VEC3"},{"bufferView":1,"componentType":5126,"count":2868,"max":[100,99.74243927001953],"min":[0.00007331748929573223,-1],"type":"VEC2"},{"bufferView":2,"componentType":5126,"count":2868,"max":[1,0.9999157190322876,1],"min":[-0.9994216561317444,-1,-1],"type":"VEC3"},{"bufferView":3,"componentType":5126,"count":1392,"max":[100,75.83641052246094,2],"min":[-0.0604117177426815,0.2598438858985901,0],"type":"VEC3"},{"bufferView":4,"componentType":5126,"count":1392,"max":[100,75.83641052246094],"min":[-0.0604117177426815,-1],"type":"VEC2"},{"bufferView":5,"componentType":5126,"count":1392,"max":[1,0.999880313873291,1],"min":[-0.999421238899231,-0.9999313354492188,-1],"type":"VEC3"},{"bufferView":6,"componentType":5126,"count":1386,"max":[100,99.74036407470703,2],"min":[-0.0604117177426815,24.163591384887695,0],"type":"VEC3"},{"bufferView":7,"componentType":5126,"count":1386,"max":[100,99.74036407470703],"min":[-0.0604117177426815,-1],"type":"VEC2"},{"bufferView":8,"componentType":5126,"count":1386,"max":[1,0.9999310374259949,1],"min":[-0.999421238899231,-0.9998805522918701,-1],"type":"VEC3"},{"bufferView":9,"componentType":5126,"count":1494,"max":[100,99.74105072021484,2],"min":[68.75,0.2579472064971924,0],"type":"VEC3"},{"bufferView":10,"componentType":5126,"count":1494,"max":[100,99.74105072021484],"min":[2.03855562210083,-1],"type":"VEC2"},{"bufferView":11,"componentType":5126,"count":1494,"max":[1,0.9999362826347351,1],"min":[-1,-0.9999361038208008,-1],"type":"VEC3"},{"bufferView":12,"componentType":5126,"count":2868,"max":[99.94000244140625,99.74234771728516,2],"min":[-0.060926683247089386,0.2589956521987915,0],"type":"VEC3"},{"bufferView":13,"componentType":5126,"count":2868,"max":[99.94000244140625,99.74234771728516],"min":[-0.060926683247089386,-1],"type":"VEC2"},{"bufferView":14,"componentType":5126,"count":2868,"max":[1,0.9999157190322876,1],"min":[-0.9994216561317444,-0.9999361634254456,-1],"type":"VEC3"}],"materials":[{"pbrMetallicRoughness":{"metallicFactor":0,"roughnessFactor":1}},{"pbrMetallicRoughness":{"baseColorFactor":[0,0.13013647668074665,0.3967552307153359,1],"metallicFactor":0,"roughnessFactor":1}},{"pbrMetallicRoughness":{"baseColorFactor":[0,0.19461783043107173,0.6038273388475408,1],"metallicFactor":0,"roughnessFactor":1}},{"pbrMetallicRoughness":{"baseColorFactor":[0.013702083043526807,0.33245153633549385,0.8713671191959567,1],"metallicFactor":0,"roughnessFactor":1}},{"pbrMetallicRoughness":{"metallicFactor":0,"roughnessFactor":1}}],"meshes":[{"primitives":[{"mode":4,"attributes":{"POSITION":0,"TEXCOORD_0":1,"NORMAL":2},"material":0}]},{"primitives":[{"mode":4,"attributes":{"POSITION":3,"TEXCOORD_0":4,"NORMAL":5},"material":1}]},{"primitives":[{"mode":4,"attributes":{"POSITION":6,"TEXCOORD_0":7,"NORMAL":8},"material":2}]},{"primitives":[{"mode":4,"attributes":{"POSITION":9,"TEXCOORD_0":10,"NORMAL":11},"material":3}]},{"primitives":[{"mode":4,"attributes":{"POSITION":12,"TEXCOORD_0":13,"NORMAL":14},"material":4}]}]}